<?xml version="1.0" standalone="no"?>
<!DOCTYPE svg PUBLIC "-//W3C//DTD SVG 20010904//EN"
 "http://www.w3.org/TR/2001/REC-SVG-20010904/DTD/svg10.dtd">
<svg version="1.0" xmlns="http://www.w3.org/2000/svg"
 width="800.000000pt" height="800.000000pt" viewBox="0 0 800.000000 800.000000"
 preserveAspectRatio="xMidYMid meet">
<metadata>
Created by potrace 1.14, written by Peter Selinger 2001-2017
</metadata>
<g transform="translate(0.000000,800.000000) scale(0.100000,-0.100000)"
fill="#000000" stroke="none">
<path d="M3705 7920 c-3 -5 -21 -8 -40 -6 -20 1 -35 -2 -35 -8 0 -6 -5 -4 -10
4 -7 10 -10 11 -10 2 0 -8 -9 -11 -25 -8 -13 3 -27 0 -30 -5 -4 -5 -14 -5 -26
1 -13 8 -19 7 -19 0 0 -6 -10 -9 -22 -6 -13 2 -34 -1 -48 -7 -24 -9 -68 -16
-122 -18 -15 -1 -26 -5 -23 -9 2 -4 -6 -6 -20 -5 -13 2 -29 -3 -36 -11 -6 -7
-15 -11 -20 -9 -4 3 -33 -1 -63 -10 -63 -18 -104 -27 -128 -29 -9 0 -15 -3
-12 -7 3 -6 -53 -23 -68 -20 -5 0 -8 -4 -8 -10 0 -5 -4 -7 -10 -4 -5 3 -10 1
-10 -5 0 -6 -5 -8 -10 -5 -6 4 -18 1 -27 -7 -14 -11 -16 -11 -8 2 6 11 4 11
-11 -2 -19 -17 -22 -18 -50 -18 -8 0 -12 -5 -8 -11 4 -8 0 -9 -15 -4 -12 4
-21 2 -21 -4 0 -6 -6 -11 -14 -11 -7 0 -19 -7 -26 -15 -7 -8 -16 -12 -21 -9
-5 3 -9 0 -9 -7 0 -7 -3 -10 -6 -6 -4 3 -13 -1 -21 -9 -8 -8 -19 -12 -24 -8
-5 3 -8 0 -7 -8 2 -7 -5 -12 -14 -12 -10 1 -16 -2 -13 -6 4 -7 -17 -20 -31
-19 -3 0 -14 -9 -23 -20 -10 -11 -21 -18 -25 -14 -3 3 -6 1 -6 -6 0 -7 -4 -10
-9 -7 -5 3 -12 -1 -15 -10 -3 -8 -10 -13 -15 -9 -6 3 -15 -4 -21 -15 -6 -11
-15 -20 -21 -20 -5 0 -22 -11 -36 -24 -15 -14 -30 -23 -35 -20 -4 3 -8 -2 -8
-11 0 -9 -3 -14 -7 -12 -10 5 -43 -30 -36 -37 4 -3 -1 -6 -10 -6 -10 0 -17 -5
-17 -12 0 -6 -3 -8 -7 -5 -3 4 -17 -6 -31 -21 -14 -15 -29 -26 -33 -25 -4 2
-11 -6 -14 -17 -4 -11 -11 -18 -16 -15 -5 4 -9 1 -9 -5 0 -6 -5 -8 -10 -5 -6
4 -9 3 -8 -2 3 -10 -54 -69 -64 -65 -5 1 -8 -5 -8 -14 0 -8 -4 -13 -9 -10 -5
3 -16 -6 -26 -20 -27 -42 -49 -64 -62 -64 -7 0 -12 -6 -11 -12 2 -7 -3 -12
-10 -10 -8 1 -11 -2 -7 -8 3 -5 -1 -13 -9 -16 -9 -3 -16 -13 -16 -21 0 -8 -4
-11 -10 -8 -5 3 -10 1 -10 -5 0 -6 -4 -8 -10 -5 -5 3 -7 0 -4 -8 3 -8 -2 -17
-11 -21 -9 -3 -13 -11 -9 -17 4 -8 3 -9 -4 -5 -7 4 -12 2 -12 -4 0 -6 -5 -8
-11 -4 -7 4 -10 1 -7 -7 3 -8 -6 -22 -18 -32 -13 -9 -26 -26 -29 -37 -4 -11
-11 -17 -17 -14 -7 5 -9 1 -5 -9 4 -12 1 -17 -10 -17 -9 0 -13 -3 -10 -6 3 -4
-5 -15 -18 -26 -14 -11 -23 -24 -20 -29 4 -5 -2 -9 -11 -9 -10 0 -14 -3 -11
-7 10 -9 -14 -34 -26 -26 -6 3 -7 1 -3 -5 7 -12 0 -23 -39 -64 -11 -11 -14
-18 -8 -14 9 5 11 2 7 -8 -3 -9 -10 -13 -15 -10 -5 3 -9 -3 -9 -13 0 -10 -9
-26 -20 -36 -12 -10 -18 -23 -14 -29 4 -6 3 -8 -3 -5 -6 4 -15 -5 -21 -18 -7
-14 -16 -25 -22 -25 -5 0 -9 -3 -8 -7 2 -12 -14 -46 -29 -61 -7 -8 -11 -18 -8
-23 4 -5 -1 -6 -10 -3 -11 4 -14 2 -10 -9 4 -8 -1 -17 -10 -21 -9 -3 -14 -10
-11 -15 3 -5 -1 -12 -10 -15 -9 -4 -14 -13 -10 -21 5 -13 -5 -19 -26 -16 -4 0
-5 -5 -2 -13 3 -7 -3 -22 -13 -31 -10 -10 -18 -22 -18 -27 0 -5 -7 -13 -15
-18 -8 -5 -12 -10 -8 -10 5 0 -1 -10 -12 -22 -10 -13 -20 -27 -22 -33 -1 -5
-10 -19 -20 -29 -10 -11 -18 -25 -18 -32 0 -6 -7 -15 -16 -18 -8 -3 -13 -10
-10 -15 3 -5 -1 -12 -10 -15 -8 -3 -13 -10 -10 -15 3 -5 -1 -12 -10 -15 -8 -3
-13 -9 -11 -13 7 -11 -19 -33 -29 -25 -5 4 -2 -1 5 -10 12 -16 11 -18 -4 -18
-10 0 -16 -3 -12 -6 3 -4 -4 -15 -16 -26 -12 -11 -16 -16 -8 -12 9 5 12 3 7
-4 -4 -7 -13 -12 -21 -12 -7 0 -16 -7 -19 -16 -5 -12 -3 -14 7 -8 7 5 5 2 -5
-8 -10 -9 -18 -21 -18 -26 0 -5 -7 -13 -16 -16 -8 -3 -13 -10 -10 -15 3 -5 -2
-15 -11 -22 -14 -12 -16 -12 -8 0 5 10 4 12 -4 7 -6 -4 -9 -12 -6 -17 4 -5 -1
-12 -9 -15 -9 -3 -13 -10 -10 -15 3 -5 0 -9 -5 -9 -6 0 -10 -6 -8 -12 1 -7 -3
-12 -10 -11 -8 2 -10 -4 -6 -14 4 -11 3 -14 -5 -9 -7 4 -12 2 -12 -3 0 -18 -4
-25 -22 -46 -9 -11 -18 -23 -18 -27 0 -4 -12 -20 -25 -34 -14 -15 -23 -29 -21
-31 2 -2 -7 -16 -20 -30 -13 -14 -22 -28 -19 -31 2 -3 -3 -11 -13 -19 -11 -10
-12 -12 -2 -8 10 4 9 2 -2 -8 -10 -8 -18 -19 -18 -26 0 -6 -5 -11 -11 -11 -5
0 -7 -5 -4 -10 3 -6 0 -13 -9 -16 -8 -3 -12 -12 -10 -19 3 -7 -5 -20 -18 -29
-14 -10 -17 -16 -8 -16 11 0 11 -3 2 -12 -7 -7 -12 -20 -12 -31 0 -10 -4 -15
-10 -12 -5 3 -10 0 -10 -7 -1 -7 -9 -31 -20 -53 -11 -22 -19 -46 -20 -52 0 -7
-5 -13 -11 -13 -6 0 -9 -7 -5 -15 3 -10 -1 -15 -12 -15 -13 0 -14 -2 -3 -9 9
-6 10 -11 2 -15 -6 -4 -9 -12 -6 -17 4 -5 1 -9 -6 -9 -7 0 -9 -3 -6 -7 4 -3 2
-12 -5 -20 -6 -7 -8 -16 -5 -19 3 -4 -1 -13 -9 -21 -8 -8 -12 -19 -9 -24 4 -5
1 -9 -5 -9 -6 0 -9 -4 -5 -9 3 -5 1 -12 -5 -16 -6 -4 -8 -11 -5 -16 4 -5 2 -9
-4 -9 -5 0 -8 -9 -6 -20 2 -11 -1 -20 -6 -20 -6 0 -8 -4 -5 -8 3 -5 -3 -24
-13 -43 -10 -19 -16 -40 -14 -46 3 -7 -3 -16 -12 -19 -13 -5 -14 -8 -3 -15 10
-7 10 -9 1 -9 -7 0 -13 -6 -13 -12 0 -7 -7 -26 -15 -42 -9 -16 -13 -31 -10
-34 3 -3 -3 -14 -12 -25 -10 -11 -12 -17 -6 -13 9 5 11 2 7 -8 -3 -9 -10 -16
-14 -16 -4 0 -6 -11 -5 -25 2 -14 0 -23 -5 -20 -7 4 -25 -69 -21 -87 0 -5 -4
-8 -10 -8 -6 0 -9 -7 -5 -15 3 -8 0 -15 -7 -15 -8 0 -7 -4 3 -10 12 -8 12 -10
-4 -16 -14 -5 -15 -9 -4 -15 9 -6 9 -9 1 -9 -6 0 -10 -9 -8 -20 2 -11 0 -20
-6 -20 -5 0 -8 -3 -8 -7 5 -21 -15 -93 -25 -93 -6 0 -5 -4 3 -9 9 -6 10 -11 2
-15 -6 -4 -9 -11 -6 -16 3 -5 1 -20 -5 -35 -7 -19 -7 -24 1 -19 8 5 8 1 0 -14
-6 -11 -8 -28 -5 -36 4 -9 1 -16 -6 -16 -9 0 -9 -4 1 -17 10 -11 10 -14 2 -9
-7 4 -13 4 -14 -1 0 -4 -3 -33 -5 -64 -5 -73 -8 -91 -18 -108 -7 -10 -5 -12 3
-6 7 4 5 -5 -5 -21 -12 -17 -14 -25 -5 -20 10 7 12 3 6 -14 -7 -21 -10 -36
-19 -92 -2 -15 -7 -31 -10 -37 -3 -5 0 -12 6 -14 10 -4 10 -6 1 -6 -7 -1 -10
-8 -7 -16 4 -8 1 -15 -6 -15 -9 0 -10 -3 -1 -13 8 -10 7 -17 -2 -27 -10 -10
-9 -11 2 -5 10 6 12 4 5 -6 -5 -8 -10 -39 -11 -69 -1 -30 -4 -89 -5 -130 -2
-41 -8 -81 -12 -89 -6 -9 -5 -12 0 -8 13 7 12 -172 0 -192 -6 -9 -5 -12 1 -8
12 8 11 -132 -2 -152 -5 -9 -4 -12 2 -8 12 7 11 -92 -1 -112 -6 -9 -5 -12 1
-8 8 5 10 -11 13 -120 0 -18 6 -33 12 -33 7 0 7 -4 -1 -14 -8 -10 -9 -16 -2
-21 6 -3 11 -16 11 -28 1 -61 6 -95 14 -89 5 3 7 -2 3 -11 -3 -10 -2 -17 2
-17 5 0 7 -9 4 -20 -3 -11 -1 -20 4 -20 5 0 10 -6 11 -12 0 -7 3 -24 7 -38 4
-14 7 -31 7 -37 1 -7 5 -13 9 -13 4 0 6 -9 4 -20 -2 -11 0 -18 6 -15 5 4 9 -3
9 -14 0 -11 5 -23 11 -27 6 -3 9 -15 6 -25 -3 -11 -1 -19 4 -19 5 0 9 -7 9
-16 0 -8 4 -12 10 -9 5 3 7 0 4 -9 -3 -8 -2 -21 2 -28 5 -7 9 -17 10 -23 0 -5
2 -16 2 -23 1 -7 6 -11 10 -8 4 2 9 -4 10 -15 4 -43 6 -49 14 -49 4 0 8 -9 8
-20 0 -11 7 -20 15 -20 9 0 12 -6 9 -15 -4 -8 1 -17 10 -21 9 -3 14 -10 11
-14 -3 -5 1 -15 9 -23 8 -8 12 -17 9 -21 -4 -3 -1 -6 5 -6 7 0 12 -6 12 -13 0
-7 9 -19 19 -27 11 -7 18 -17 15 -21 -2 -4 0 -10 6 -14 6 -4 7 -11 4 -17 -4
-6 -3 -9 2 -6 5 3 17 -3 27 -14 9 -10 14 -18 10 -18 -3 0 19 -25 51 -55 31
-30 58 -55 60 -55 2 0 24 -20 49 -45 26 -25 44 -45 41 -45 -2 0 1 -6 8 -14 7
-8 16 -12 21 -9 4 2 10 -3 13 -11 3 -9 12 -16 20 -16 8 0 14 -5 14 -11 0 -5 4
-8 9 -5 5 3 11 -1 15 -9 3 -8 11 -15 18 -15 8 0 20 -9 28 -20 8 -11 20 -20 28
-20 8 0 10 -5 6 -13 -4 -6 -4 -9 1 -5 4 4 15 2 23 -5 13 -10 14 -9 7 3 -4 8 1
6 12 -5 11 -11 18 -24 15 -30 -3 -5 1 -5 8 2 10 9 18 6 37 -13 26 -26 39 -31
27 -11 -6 10 26 -13 46 -33 3 -3 16 -7 30 -8 14 -2 27 -8 28 -13 2 -5 12 -9
22 -9 26 0 71 -26 62 -36 -4 -4 1 -2 10 5 15 11 19 11 24 -2 3 -9 12 -13 21
-10 9 4 14 2 11 -3 -4 -5 5 -10 19 -11 14 0 28 -5 32 -10 3 -4 17 -10 31 -12
14 -1 27 -6 30 -10 6 -7 29 -14 53 -15 9 0 17 -4 17 -8 0 -4 9 -8 19 -8 27 0
52 -11 46 -19 -2 -4 9 -7 25 -6 16 1 28 -3 27 -9 -1 -6 6 -10 16 -8 9 2 17 -2
17 -8 0 -5 11 -10 25 -10 14 0 25 -4 25 -9 0 -4 10 -7 23 -7 12 1 31 -5 41
-13 14 -12 17 -12 11 -2 -6 10 -4 12 6 5 14 -9 34 -14 57 -16 6 -1 12 -5 12
-10 0 -4 3 -7 8 -7 23 4 52 -2 48 -10 -3 -4 6 -6 21 -3 16 3 24 1 20 -5 -4 -6
6 -9 24 -8 18 1 33 -4 39 -14 8 -14 9 -14 10 -1 0 13 1 13 10 0 5 -8 10 -11
10 -6 0 5 8 2 17 -5 9 -8 14 -9 10 -3 -4 8 3 8 28 0 18 -6 31 -15 28 -21 -3
-5 0 -5 6 1 10 9 21 9 44 0 18 -6 34 -13 37 -16 5 -5 21 -10 55 -15 70 -12 92
-18 104 -28 12 -10 13 -9 6 3 -7 12 -6 13 6 3 9 -7 29 -14 45 -16 16 -2 39 -9
50 -15 12 -6 24 -8 28 -5 3 3 6 0 6 -8 0 -11 2 -11 10 1 6 10 10 11 10 3 0 -8
13 -13 30 -13 17 0 30 -5 30 -11 0 -5 5 -7 10 -4 6 4 24 0 40 -9 19 -9 28 -10
23 -3 -4 7 0 6 10 -2 9 -7 17 -10 17 -6 0 4 6 3 13 -2 11 -8 24 -11 75 -15 6
-1 12 -5 12 -9 0 -4 9 -6 20 -4 11 2 20 1 20 -3 0 -4 12 -9 28 -10 15 -1 29
-7 30 -13 3 -6 10 -5 20 3 12 10 14 10 8 0 -6 -11 18 -18 47 -13 4 0 7 -3 7
-7 0 -8 7 -10 50 -14 11 -1 20 -5 20 -8 0 -4 7 -7 15 -8 8 -1 22 -3 30 -4 8
-1 15 -4 15 -8 0 -4 11 -6 25 -5 14 2 25 -1 25 -5 0 -5 9 -7 20 -5 11 2 20 1
20 -3 0 -4 14 -9 32 -10 17 -2 38 -8 47 -15 12 -9 13 -9 7 1 -4 6 -2 12 3 12
6 0 11 -8 11 -17 0 -15 2 -16 10 -3 6 9 10 11 10 3 0 -7 7 -10 15 -7 8 4 15 1
15 -6 0 -6 5 -8 10 -5 6 4 24 0 40 -9 17 -8 27 -10 24 -4 -4 5 6 2 22 -8 21
-14 26 -15 19 -4 -8 13 -6 13 8 2 9 -8 21 -11 27 -7 5 3 10 1 10 -5 0 -6 10
-10 23 -8 12 2 28 -4 35 -12 12 -13 13 -13 6 0 -6 12 -4 13 7 3 7 -7 23 -13
36 -13 13 0 23 -3 23 -8 0 -4 14 -8 31 -8 17 -1 34 -6 38 -10 3 -5 20 -11 36
-13 17 -1 32 -6 35 -10 3 -4 18 -7 33 -6 15 1 30 -3 34 -8 4 -6 1 -7 -8 -2
-12 7 -12 5 -1 -6 11 -12 14 -12 22 1 8 12 10 12 10 1 0 -7 6 -11 15 -7 8 3
15 1 15 -4 0 -5 7 -7 15 -4 8 3 20 2 27 -2 7 -5 24 -10 38 -12 13 -2 31 -9 39
-15 12 -10 13 -9 6 3 -8 13 -7 13 9 1 10 -8 30 -15 46 -16 16 -1 37 -8 46 -16
16 -12 17 -12 9 1 -7 12 -6 13 6 4 17 -14 77 -29 102 -25 9 1 17 -4 17 -11 0
-9 3 -9 10 2 5 8 10 10 10 5 0 -6 17 -12 37 -13 21 -2 41 -8 45 -15 6 -9 8 -8
8 3 0 12 2 12 9 2 4 -8 11 -13 15 -13 3 1 9 1 14 0 4 -1 17 0 29 0 11 1 24 -3
28 -8 4 -8 12 -8 27 0 15 8 18 8 14 0 -5 -7 2 -11 16 -10 42 0 73 -6 80 -16 5
-6 8 -4 8 5 0 13 1 13 10 0 5 -8 10 -10 10 -4 0 6 7 11 15 11 8 0 12 -3 10 -7
-2 -4 65 -6 150 -6 97 1 155 -3 155 -9 0 -7 3 -7 8 0 4 6 27 10 52 9 25 0 51
5 59 10 17 13 14 14 36 -4 11 -9 16 -10 11 -2 -7 11 10 17 42 13 6 -1 12 2 12
6 0 5 8 10 18 11 31 3 47 7 60 15 6 5 12 5 12 1 0 -3 6 -2 13 3 6 6 20 9 30 8
10 -2 14 1 11 7 -5 7 2 9 19 6 15 -3 24 -2 22 2 -3 5 2 11 11 14 10 4 13 2 8
-7 -4 -6 3 -3 15 8 13 11 25 19 27 18 10 -6 64 10 64 19 0 5 5 6 10 3 6 -3 10
-1 10 5 0 6 5 8 10 5 6 -3 10 0 10 7 0 11 2 10 9 0 6 -11 10 -10 15 4 3 9 9
14 12 11 3 -3 23 1 44 8 21 7 41 11 44 8 3 -4 6 -1 6 5 0 7 8 12 18 12 10 0
27 6 37 14 11 8 26 11 34 8 10 -4 12 -1 6 8 -6 9 -4 11 4 6 7 -5 18 0 26 10
11 15 14 16 15 4 1 -13 2 -13 13 0 7 8 19 16 27 18 8 2 17 7 20 11 3 5 13 7
23 5 10 -1 14 2 10 9 -4 7 0 8 11 4 10 -4 15 -3 11 3 -3 6 2 10 11 10 10 0 25
6 33 14 9 7 45 29 80 47 35 19 74 44 87 56 13 12 24 19 24 16 0 -3 16 11 35
31 19 21 35 34 35 30 0 -4 11 4 24 17 13 13 35 33 48 44 14 11 24 23 21 27 -2
5 1 8 6 8 15 0 51 37 44 44 -4 3 1 6 10 6 10 0 16 3 15 8 -3 7 8 21 63 82 16
17 29 36 29 41 0 5 4 9 9 9 5 0 13 10 17 22 4 13 14 28 23 35 9 7 13 13 9 13
-5 0 1 10 12 22 54 59 55 61 40 53 -8 -4 -2 4 13 18 16 14 28 29 28 34 -1 18
11 43 21 43 6 0 8 3 5 7 -4 3 1 12 11 20 9 8 11 11 3 7 -7 -4 -3 7 10 25 12
17 27 31 33 31 5 0 6 3 3 7 -4 3 0 15 10 25 9 10 12 18 8 18 -4 0 4 11 19 25
14 13 26 31 26 40 0 9 6 18 14 21 8 3 12 12 9 20 -3 8 0 14 6 14 6 0 10 3 9 8
-4 12 26 72 37 72 5 0 3 5 -5 10 -13 8 -12 10 2 10 10 0 17 3 17 8 -4 21 3 32
19 33 10 0 12 3 4 6 -9 3 -7 12 8 33 11 15 20 33 20 39 0 6 5 11 11 11 5 0 8
4 5 9 -4 5 -2 11 3 13 5 1 11 10 13 18 2 8 6 17 10 20 3 3 8 12 10 20 2 8 10
21 18 28 13 12 13 13 0 7 -13 -6 -13 -5 0 7 8 7 16 20 18 28 2 8 7 17 12 20 5
3 10 12 12 20 2 8 10 20 19 27 10 7 15 23 13 38 -1 18 2 25 10 22 7 -3 13 0
14 6 2 23 8 42 17 57 5 8 10 22 12 30 1 8 7 16 13 18 5 2 8 8 4 13 -3 5 -1 9
5 9 6 0 8 6 5 14 -3 8 -1 17 5 21 6 3 11 15 11 26 0 11 4 18 9 14 6 -3 10 3
10 12 0 35 6 58 18 66 7 4 10 14 7 22 -4 8 -1 15 6 15 6 0 8 5 5 10 -3 6 -1
10 5 10 6 0 9 4 5 9 -3 5 0 13 6 16 5 4 8 13 5 20 -3 8 -1 15 4 17 5 2 11 13
13 26 2 13 8 27 13 30 5 4 10 16 12 27 2 19 8 44 12 55 1 3 2 8 1 13 0 4 4 7
9 7 5 0 9 3 9 8 -1 4 0 10 1 15 4 12 7 26 9 38 0 5 5 8 10 5 5 -3 8 7 7 24 -1
18 4 32 12 35 8 3 12 8 9 12 -3 3 0 18 8 34 8 15 15 37 15 49 0 14 4 19 13 14
8 -5 8 -3 -2 9 -11 14 -11 18 2 23 9 3 13 12 10 20 -3 8 -1 14 3 14 5 0 10 10
11 23 2 21 9 56 13 67 1 3 2 8 1 13 0 4 3 7 8 7 5 0 7 10 3 22 -3 12 -1 19 4
15 5 -3 10 2 11 11 3 44 8 62 16 62 5 0 7 7 3 15 -3 8 0 15 7 15 8 0 6 4 -3
10 -12 8 -12 10 -1 10 8 0 12 3 8 6 -3 3 -2 16 3 29 6 15 4 27 -3 35 -9 10 -9
11 2 5 11 -6 13 -4 8 8 -3 9 -2 19 3 22 5 3 7 14 5 25 -2 11 -1 20 3 20 4 0 8
39 10 87 2 53 8 91 15 95 8 5 5 8 -8 8 -11 0 -15 4 -10 8 6 4 10 30 10 57 0
28 -4 53 -10 57 -7 5 -6 8 0 8 6 0 11 9 11 20 0 11 -3 20 -6 20 -3 0 -5 19 -5
43 1 23 -3 48 -8 55 -6 8 -5 12 4 12 9 0 10 3 4 8 -10 7 -13 21 -17 94 -2 20
-6 34 -9 32 -3 -2 -7 11 -8 29 -5 78 -8 93 -15 105 -4 7 -2 12 5 12 7 0 4 7
-7 15 -11 8 -14 14 -6 15 9 0 10 5 3 19 -6 10 -7 21 -4 25 3 3 1 6 -7 6 -10 0
-10 3 -1 14 9 10 9 16 1 21 -6 4 -9 13 -6 21 3 8 0 14 -7 14 -8 0 -6 4 3 10
10 6 11 10 3 10 -8 0 -11 11 -9 30 2 16 -1 30 -5 30 -5 0 -9 12 -9 28 0 15 -4
33 -9 41 -5 8 -6 24 -1 36 6 16 4 27 -8 39 -12 12 -13 16 -3 16 10 0 11 3 2
13 -6 8 -8 17 -4 20 3 4 0 7 -8 7 -11 0 -11 2 1 10 12 8 12 10 1 10 -8 0 -11
3 -8 7 4 3 2 12 -4 20 -9 10 -8 13 1 13 9 0 7 7 -6 22 -10 12 -13 18 -5 13 11
-6 12 -5 5 6 -15 24 -32 79 -22 73 5 -4 3 7 -6 24 -8 16 -12 32 -9 35 3 4 0
14 -7 23 -11 12 -11 17 -1 23 10 6 9 10 -4 15 -9 3 -14 10 -11 15 4 5 2 11 -3
13 -5 1 -11 14 -13 28 -1 14 -7 28 -11 31 -5 4 -10 18 -10 32 -1 14 -6 23 -11
19 -5 -3 -7 4 -4 16 3 12 0 26 -7 32 -8 6 -11 19 -8 27 4 11 2 14 -5 9 -8 -5
-10 -2 -6 8 3 9 1 16 -6 16 -6 0 -8 5 -5 10 3 6 2 10 -2 10 -5 0 -10 10 -10
22 -1 13 -9 28 -18 34 -12 9 -13 13 -3 17 10 4 10 6 1 6 -7 1 -13 8 -13 16 0
8 -9 30 -20 50 -11 19 -17 35 -13 35 3 0 -2 9 -11 19 -10 11 -15 25 -11 30 3
6 2 11 -3 11 -10 0 -36 58 -33 73 0 4 -4 7 -10 7 -6 0 -8 7 -5 16 3 8 2 12 -4
9 -9 -5 -11 -1 -10 20 1 3 -6 13 -15 21 -8 9 -13 20 -10 25 4 5 2 9 -2 9 -5 0
-14 9 -21 21 -11 17 -11 20 0 14 7 -3 6 -1 -3 7 -9 7 -14 19 -11 27 3 8 0 11
-7 7 -6 -4 -11 -1 -11 8 0 9 -5 16 -11 16 -5 0 -8 4 -5 8 3 5 -1 20 -9 35 -7
14 -11 28 -8 31 3 3 -2 8 -11 12 -9 3 -14 10 -11 14 3 5 1 11 -5 15 -6 4 -8
11 -5 16 4 5 1 9 -4 9 -6 0 -11 9 -11 19 0 10 -7 21 -15 25 -8 3 -14 9 -13 13
1 4 -3 18 -10 29 -6 12 -8 24 -5 28 3 3 1 6 -6 6 -7 0 -9 5 -6 10 3 6 1 10 -6
10 -7 0 -9 3 -6 7 4 3 -1 12 -11 20 -9 8 -11 12 -4 8 17 -9 15 0 -4 19 -8 9
-17 26 -19 38 -3 12 -10 25 -17 30 -7 4 -9 8 -5 8 4 0 2 10 -5 23 -7 12 -11
28 -9 36 1 7 -2 10 -8 6 -6 -3 -11 0 -11 8 0 8 -7 20 -15 27 -8 7 -15 21 -15
32 0 10 -7 21 -16 25 -13 5 -13 7 -2 14 10 7 10 9 1 9 -7 0 -13 7 -13 15 0 8
-5 15 -11 15 -5 0 -7 5 -4 10 3 6 1 10 -5 10 -6 0 -8 5 -5 10 3 6 1 10 -5 10
-6 0 -8 5 -5 10 3 6 1 10 -5 10 -6 0 -8 5 -5 10 3 6 2 10 -3 10 -5 0 -12 9
-15 20 -8 30 -9 34 -21 47 -34 39 -36 41 -23 46 7 3 5 6 -5 6 -16 1 -35 36
-30 54 1 5 -2 6 -8 2 -6 -3 -10 3 -10 15 0 12 -4 18 -10 15 -5 -3 -10 3 -10
14 0 12 -4 21 -10 21 -5 0 -10 7 -10 15 0 9 -7 18 -16 22 -8 3 -13 11 -11 18
3 6 -4 17 -14 23 -10 7 -19 21 -19 33 0 11 -4 17 -10 14 -5 -3 -10 1 -10 9 0
9 -3 16 -8 16 -4 0 -13 9 -20 21 -10 15 -10 19 -1 14 8 -5 10 -4 5 3 -4 7 -14
12 -22 12 -8 0 -14 6 -14 13 0 7 -9 19 -19 27 -11 7 -18 17 -15 22 3 4 -2 15
-10 24 -9 9 -14 20 -10 25 3 5 2 8 -3 7 -4 -2 -9 1 -10 5 -1 5 -11 17 -23 27
-12 11 -19 23 -16 29 4 5 -3 12 -14 16 -11 4 -18 10 -15 15 3 4 -2 10 -10 14
-8 3 -15 12 -15 20 0 8 -5 16 -11 18 -5 2 -11 11 -13 20 -1 10 -6 21 -11 25
-4 4 -5 1 -1 -7 4 -8 0 -6 -8 4 -9 11 -16 24 -16 29 0 4 -5 5 -12 1 -7 -4 -8
-3 -4 5 5 7 -3 20 -18 32 -14 11 -26 27 -26 35 0 8 -6 14 -14 14 -8 0 -19 14
-25 30 -5 17 -17 30 -25 30 -9 0 -15 4 -14 9 2 5 -9 20 -24 34 -15 14 -24 28
-20 32 4 4 2 5 -4 3 -6 -2 -31 18 -56 44 -25 26 -49 44 -52 41 -3 -4 -6 1 -6
11 0 9 -4 15 -8 12 -5 -3 -21 6 -36 19 -16 14 -32 22 -37 20 -4 -3 -10 4 -14
15 -4 11 -11 18 -16 15 -5 -4 -9 -2 -9 3 0 5 -9 12 -21 15 -13 4 -18 10 -13
18 4 7 3 10 -3 6 -5 -4 -19 2 -29 12 -11 10 -27 17 -36 15 -9 -1 -24 7 -34 17
-9 10 -28 19 -41 19 -12 0 -23 5 -23 10 0 7 -7 7 -21 -1 -15 -8 -19 -8 -15 0
7 11 1 12 -89 15 -27 0 -53 6 -57 11 -5 7 -8 7 -8 0 0 -6 -20 -11 -45 -11 -28
-1 -42 2 -38 9 3 6 1 7 -6 3 -22 -14 -63 -17 -55 -5 5 8 3 9 -6 4 -8 -5 -44
-9 -81 -11 -37 -1 -72 -5 -77 -8 -6 -3 -13 -2 -17 4 -4 6 -10 8 -15 5 -4 -3
-18 4 -31 14 -18 14 -29 17 -47 10 -16 -6 -24 -5 -27 4 -3 7 -22 12 -45 11
-22 0 -40 2 -40 5 0 3 -21 7 -47 8 -26 2 -50 8 -55 15 -6 10 -8 10 -8 -1 0
-11 -3 -11 -17 0 -15 12 -16 12 -8 -1 7 -12 6 -13 -6 -4 -8 6 -21 12 -29 13
-59 5 -143 18 -147 21 -2 2 -15 3 -30 4 -16 1 -32 4 -38 7 -5 3 -28 7 -50 8
-22 2 -43 8 -47 14 -6 9 -8 8 -8 -1 0 -8 -5 -10 -12 -5 -7 4 -24 8 -38 10 -63
4 -80 8 -80 18 0 5 -5 3 -10 -5 -5 -8 -10 -10 -10 -3 0 6 -11 10 -25 8 -14 -1
-28 1 -31 6 -2 4 -11 6 -19 2 -9 -3 -21 0 -28 5 -8 7 -18 7 -27 2 -8 -5 -19
-5 -25 0 -15 12 -48 16 -63 7 -7 -5 -12 -5 -11 0 3 20 -2 25 -15 14 -10 -8
-16 -9 -21 -1 -3 5 -19 10 -34 10 -15 0 -33 6 -40 13 -11 10 -12 9 -6 -2 6
-10 2 -11 -16 -5 -13 4 -41 9 -61 9 -21 1 -41 4 -44 8 -3 3 -13 3 -22 0 -10
-4 -13 -2 -8 5 4 7 5 12 2 12 -3 0 -7 -4 -11 -10z m-45 -298 c19 11 23 11 28
-1 4 -11 6 -11 13 0 7 11 12 12 29 1 15 -9 20 -9 20 0 0 9 3 9 12 0 14 -14 32
-16 23 -2 -3 6 1 7 9 4 9 -3 14 -9 12 -13 -2 -3 17 -6 42 -5 26 0 52 -2 57 -5
16 -8 89 -21 143 -24 12 0 22 -4 22 -9 0 -4 7 -5 16 -1 9 3 20 0 25 -8 7 -11
9 -11 9 -1 0 8 5 10 13 5 6 -4 26 -8 42 -9 17 -1 32 -3 35 -4 3 -1 13 -2 23
-1 15 2 22 -9 18 -31 0 -5 5 -8 13 -8 8 0 18 -10 21 -21 6 -17 9 -19 16 -8 7
11 9 11 9 -3 0 -9 5 -20 12 -24 7 -5 8 -3 3 7 -8 12 -6 12 8 0 9 -7 14 -18 10
-25 -3 -6 -3 -8 2 -4 4 4 14 3 22 -4 7 -6 16 -8 20 -5 3 4 12 -1 20 -11 8 -9
12 -11 8 -4 -7 14 11 17 20 2 4 -6 11 -8 16 -5 5 4 12 0 15 -9 3 -8 12 -12 20
-9 8 3 20 0 28 -6 7 -6 16 -8 19 -4 4 3 14 0 24 -8 15 -12 16 -12 8 1 -6 12
-5 12 5 3 7 -6 19 -9 28 -6 11 5 13 3 7 -7 -6 -10 -4 -11 6 -4 21 13 39 14 39
2 0 -7 5 -6 14 1 9 8 16 8 20 2 4 -6 22 -9 41 -7 20 1 35 -2 36 -8 0 -6 3 -5
6 2 2 6 8 10 13 7 5 -3 19 -1 32 4 12 4 32 5 43 1 11 -4 26 -3 32 2 7 6 20 8
28 4 8 -3 15 -1 15 4 0 6 5 10 11 10 5 0 7 -6 3 -12 -6 -10 -5 -10 8 -1 8 7
18 10 21 6 4 -3 7 0 7 8 0 12 2 12 9 0 7 -11 13 -12 23 -3 8 6 31 12 51 14 20
1 37 5 37 8 0 3 34 6 75 5 41 0 75 4 75 8 0 5 5 5 11 1 15 -9 124 -8 139 1 5
3 10 2 10 -3 0 -6 9 -8 20 -5 11 3 28 -1 37 -8 14 -12 16 -12 9 1 -6 12 -4 11
6 -1 7 -9 19 -14 26 -11 7 2 23 -4 34 -14 15 -13 19 -14 14 -4 -4 8 4 3 18
-12 14 -16 30 -28 35 -28 6 0 15 -8 20 -17 6 -10 11 -14 11 -9 0 5 8 -1 19
-12 10 -12 20 -19 23 -17 2 3 26 -15 51 -40 26 -25 53 -45 59 -45 6 0 9 -3 5
-6 -3 -3 13 -24 35 -45 23 -21 37 -39 32 -39 -5 0 2 -10 16 -21 14 -11 19 -17
11 -13 -9 5 -12 3 -7 -4 4 -7 14 -12 22 -12 8 0 13 -4 10 -8 -3 -5 4 -15 15
-22 10 -8 19 -20 19 -27 0 -7 5 -13 10 -13 6 0 10 -4 10 -9 0 -6 11 -22 25
-37 14 -15 23 -29 20 -32 -2 -3 7 -15 21 -27 17 -14 24 -28 19 -35 -5 -8 -4
-11 2 -7 9 6 36 -23 36 -39 0 -5 11 -17 23 -27 13 -9 24 -27 26 -40 2 -12 9
-21 16 -19 6 1 12 -7 12 -18 0 -11 5 -20 10 -20 6 0 10 -10 10 -22 0 -17 3
-19 9 -9 6 10 12 5 22 -18 8 -17 17 -31 21 -31 5 0 8 -7 8 -15 0 -9 7 -18 15
-21 8 -4 13 -9 10 -14 -2 -4 4 -16 14 -26 9 -11 16 -25 13 -32 -2 -6 4 -12 13
-12 9 0 13 -4 10 -10 -3 -5 -1 -10 5 -10 6 0 9 -4 6 -9 -4 -5 -3 -11 2 -13 14
-6 52 -79 47 -89 -4 -5 1 -9 9 -9 9 0 16 -7 16 -15 0 -8 5 -15 11 -15 6 0 9
-7 5 -15 -3 -9 1 -15 11 -15 13 0 14 -2 2 -17 -10 -11 -10 -14 -1 -9 8 5 16
-3 24 -21 6 -15 10 -32 10 -36 -1 -4 4 -10 12 -13 9 -3 12 -12 9 -21 -5 -12
-3 -14 7 -8 10 6 12 3 8 -12 -3 -13 1 -24 14 -32 10 -6 16 -16 13 -21 -3 -6
-1 -10 6 -10 7 0 9 -3 6 -7 -4 -3 1 -12 11 -20 11 -9 11 -12 2 -7 -12 6 -13 4
-2 -7 6 -7 12 -21 12 -32 0 -10 5 -15 10 -12 8 5 15 -19 8 -28 -2 -2 5 -11 15
-21 9 -10 15 -22 12 -27 -4 -5 -1 -9 4 -9 6 0 11 -6 11 -14 0 -18 26 -67 32
-61 2 3 5 -1 6 -8 3 -41 7 -55 13 -51 8 4 25 -39 18 -44 -2 -2 4 -8 14 -13 9
-6 17 -19 17 -29 0 -11 5 -20 11 -20 6 0 8 -7 5 -16 -4 -9 -2 -13 5 -8 7 4 10
1 7 -7 -3 -8 1 -20 9 -27 7 -8 11 -18 8 -23 -4 -5 -1 -9 5 -9 6 0 9 -4 6 -9
-3 -5 1 -14 9 -21 8 -7 15 -19 15 -26 0 -8 5 -14 12 -14 6 0 9 -3 5 -6 -9 -9
21 -64 36 -64 8 0 7 -4 -3 -10 -10 -6 -11 -10 -2 -10 6 0 12 -7 12 -15 0 -8 5
-15 10 -15 6 0 10 -7 10 -15 0 -8 6 -15 13 -15 8 0 7 -4 -3 -10 -9 -6 -10 -10
-3 -10 6 0 17 -16 24 -35 7 -19 16 -35 21 -35 4 0 5 -7 2 -15 -4 -9 0 -15 7
-15 11 0 11 -3 -1 -10 -13 -8 -12 -10 3 -10 10 0 15 -4 12 -10 -3 -5 -2 -10 3
-10 6 0 8 -10 5 -22 -4 -19 -3 -20 7 -8 10 12 11 11 7 -7 -3 -13 0 -23 6 -23
6 0 8 -3 4 -6 -3 -4 1 -13 9 -21 8 -9 13 -22 10 -29 -3 -8 -2 -14 2 -14 11 0
43 -90 36 -101 -3 -5 -1 -9 3 -9 5 0 14 -9 21 -21 8 -12 9 -18 3 -14 -6 3 -11
1 -11 -4 0 -6 5 -11 11 -11 6 0 9 -7 5 -15 -3 -8 -2 -15 3 -15 5 0 12 -10 16
-22 4 -13 9 -27 11 -33 6 -17 17 -79 18 -97 0 -10 4 -18 9 -18 5 0 7 -7 3 -15
-3 -8 -1 -15 4 -15 5 0 6 -7 3 -17 -4 -11 -3 -14 5 -9 7 4 12 2 12 -3 0 -6 -6
-11 -12 -11 -10 0 -9 -3 1 -9 7 -5 10 -14 7 -20 -4 -6 -3 -11 2 -11 5 0 8 -10
8 -22 -1 -13 1 -27 5 -33 4 -5 9 -26 10 -45 2 -19 8 -38 14 -42 6 -5 5 -8 -3
-8 -8 0 -10 -5 -5 -12 8 -14 11 -28 15 -71 1 -16 6 -31 10 -33 5 -3 3 -14 -3
-26 -8 -15 -8 -19 0 -14 10 7 14 -15 14 -76 0 -10 4 -18 10 -18 5 0 3 -8 -4
-17 -10 -11 -10 -14 -1 -9 8 5 12 0 13 -16 0 -13 2 -32 5 -43 2 -11 6 -42 9
-70 4 -27 12 -56 18 -64 9 -12 9 -13 0 -7 -7 4 -13 3 -13 -3 0 -5 5 -13 11
-17 8 -4 7 -9 -2 -15 -8 -5 -9 -9 -3 -9 6 0 11 -6 11 -12 3 -55 12 -119 19
-129 5 -8 3 -9 -6 -4 -9 5 -11 4 -6 -4 12 -20 16 -70 5 -77 -6 -3 -6 -10 -1
-17 5 -7 8 -28 6 -47 -4 -33 -4 -41 -4 -72 0 -7 -2 -33 -5 -58 -3 -25 -6 -55
-7 -67 0 -13 -3 -21 -7 -19 -4 3 -6 -17 -6 -44 0 -27 -3 -46 -7 -44 -8 5 -12
-18 -9 -43 1 -7 -3 -13 -9 -13 -6 0 -8 -4 -5 -10 3 -5 1 -10 -5 -10 -6 0 -8
-11 -6 -25 3 -14 0 -25 -6 -25 -6 0 -8 -3 -5 -7 4 -3 1 -13 -6 -21 -9 -13 -9
-14 1 -8 17 10 15 1 -4 -18 -8 -9 -11 -16 -5 -16 6 0 11 -5 11 -11 0 -5 -4 -8
-9 -5 -13 9 -20 -16 -9 -36 6 -13 5 -16 -5 -13 -7 3 -13 -3 -15 -15 -4 -43 -6
-50 -14 -50 -5 0 -7 -4 -3 -9 3 -5 1 -12 -5 -16 -6 -4 -8 -11 -5 -16 4 -5 1
-9 -4 -9 -6 0 -10 -3 -9 -7 0 -5 -2 -16 -7 -26 -4 -10 -5 -21 -1 -24 3 -3 -2
-12 -12 -20 -9 -8 -11 -12 -4 -8 7 4 4 -9 -8 -30 -11 -20 -18 -40 -15 -46 4
-5 1 -9 -5 -9 -6 0 -8 -4 -5 -10 3 -5 1 -10 -6 -10 -7 0 -9 -3 -6 -7 4 -3 0
-17 -9 -31 -11 -17 -12 -22 -3 -16 11 6 12 5 2 -8 -7 -8 -10 -18 -6 -21 3 -4
2 -7 -4 -7 -6 0 -14 -7 -17 -16 -4 -10 -2 -13 7 -8 7 5 6 1 -3 -10 -8 -10 -15
-25 -17 -34 -1 -9 -6 -18 -12 -20 -5 -2 -7 -10 -4 -18 3 -8 0 -14 -6 -14 -7 0
-11 -6 -10 -12 3 -26 -1 -39 -10 -33 -6 3 -8 -3 -6 -14 2 -11 -3 -22 -12 -25
-12 -5 -13 -9 -3 -21 7 -9 8 -15 2 -15 -9 0 -25 -36 -23 -52 1 -5 -4 -8 -11
-8 -6 0 -8 -3 -5 -6 4 -4 -3 -20 -15 -37 -13 -18 -16 -27 -7 -22 8 5 5 -1 -5
-13 -11 -12 -16 -22 -12 -22 4 0 -2 -13 -13 -29 -12 -16 -21 -34 -21 -40 0 -6
-4 -11 -9 -11 -9 0 -26 -48 -23 -62 1 -5 -4 -7 -11 -5 -6 1 -11 -4 -10 -10 2
-7 -2 -13 -7 -13 -5 0 -9 -3 -8 -8 2 -12 -20 -59 -31 -67 -6 -3 -11 -14 -11
-24 0 -10 -12 -31 -27 -46 -16 -16 -22 -25 -15 -21 17 10 15 2 -8 -24 -11 -13
-20 -32 -20 -42 0 -10 -7 -21 -15 -24 -8 -4 -12 -10 -9 -16 3 -5 -2 -18 -11
-28 -9 -10 -14 -24 -9 -31 4 -8 3 -10 -4 -5 -7 4 -12 1 -12 -9 0 -22 -30 -66
-41 -59 -5 3 -6 -2 -3 -10 3 -9 1 -16 -4 -16 -6 0 -19 -16 -28 -35 -9 -19 -21
-32 -27 -28 -6 4 -8 0 -4 -10 3 -10 2 -17 -4 -17 -6 0 -8 -4 -4 -9 3 -6 -1
-13 -8 -18 -7 -4 -19 -23 -26 -40 -8 -18 -18 -33 -23 -33 -5 0 -7 -4 -3 -9 3
-6 -3 -14 -12 -20 -10 -6 -13 -11 -8 -11 6 0 3 -5 -5 -10 -8 -5 -15 -14 -15
-20 0 -5 -4 -10 -9 -9 -4 0 -16 -15 -25 -33 -9 -18 -22 -32 -28 -31 -6 1 -10
-5 -9 -15 2 -9 -7 -27 -20 -38 -12 -12 -20 -25 -17 -28 4 -3 -1 -6 -10 -6 -10
0 -16 -6 -14 -12 1 -7 -4 -12 -10 -11 -7 2 -12 0 -12 -5 3 -20 -3 -31 -21 -37
-11 -4 -18 -9 -16 -13 5 -10 -20 -32 -28 -25 -3 4 -6 -1 -6 -9 0 -9 -8 -22
-17 -29 -14 -12 -16 -12 -9 1 4 8 -4 0 -19 -17 -14 -18 -32 -33 -40 -33 -7 0
-16 -7 -19 -16 -3 -8 -10 -12 -16 -9 -5 3 -10 -1 -10 -10 0 -9 -4 -14 -9 -10
-6 3 -13 0 -18 -7 -4 -7 -25 -22 -45 -33 -21 -11 -38 -23 -38 -27 0 -4 -7 -5
-15 -2 -9 4 -15 0 -15 -10 0 -9 -6 -13 -14 -10 -8 3 -17 0 -21 -5 -3 -6 -11
-8 -17 -5 -7 4 -8 2 -4 -4 7 -11 3 -14 -26 -16 -7 -1 -19 -7 -27 -14 -7 -7
-19 -11 -27 -8 -7 3 -18 -2 -24 -10 -7 -8 -19 -14 -26 -14 -8 0 -14 -5 -14
-12 0 -6 -3 -8 -7 -5 -3 4 -17 0 -30 -8 -13 -9 -28 -13 -33 -10 -5 3 -11 1
-15 -5 -4 -6 -10 -8 -15 -5 -5 3 -11 1 -15 -5 -3 -5 -15 -10 -26 -10 -10 0
-19 -6 -20 -12 0 -10 -2 -10 -6 0 -4 10 -9 9 -20 -5 -8 -10 -12 -12 -8 -5 3 6
2 12 -3 12 -6 0 -13 -7 -16 -16 -4 -9 -9 -14 -13 -11 -3 3 -18 0 -33 -8 -15
-8 -30 -11 -34 -8 -3 4 -6 1 -6 -6 0 -7 -4 -9 -10 -6 -5 3 -10 2 -10 -4 0 -5
-11 -8 -25 -7 -15 2 -22 -1 -18 -7 4 -6 0 -8 -11 -4 -10 4 -19 1 -23 -9 -5
-13 -7 -13 -14 -2 -5 7 -9 8 -9 2 0 -11 -8 -13 -55 -17 -14 -1 -25 -6 -25 -10
0 -5 -5 -5 -10 -2 -6 4 -17 2 -24 -4 -7 -6 -30 -13 -49 -14 -20 -2 -39 -6 -43
-9 -3 -4 -17 -3 -30 2 -16 6 -24 6 -24 -1 0 -6 -7 -6 -20 1 -14 8 -20 8 -20 0
0 -8 -6 -8 -20 0 -14 8 -20 8 -20 0 0 -8 -6 -8 -20 0 -14 8 -20 8 -20 0 0 -8
-6 -8 -20 0 -14 8 -20 8 -20 0 0 -8 -6 -8 -20 0 -11 6 -20 7 -20 2 0 -4 -9 -8
-20 -8 -11 0 -20 3 -20 7 0 4 -11 6 -25 4 -14 -1 -28 2 -31 7 -3 5 -12 4 -20
-3 -9 -7 -14 -8 -14 -1 0 5 -10 8 -22 4 -13 -3 -19 -1 -15 6 8 11 -11 11 -30
-1 -8 -5 -13 -4 -13 2 0 6 -16 11 -36 11 -25 0 -33 4 -28 13 5 9 4 9 -6 0 -9
-8 -19 -9 -31 -2 -10 5 -36 10 -59 12 -22 1 -40 5 -40 9 0 4 -9 5 -20 3 -11
-2 -20 2 -20 8 0 7 -4 6 -10 -3 -6 -10 -10 -11 -10 -2 0 6 -3 11 -7 10 -22 -5
-82 15 -76 26 4 7 1 7 -7 -1 -11 -10 -16 -9 -27 5 -8 9 -12 11 -8 5 8 -17 -5
-16 -30 0 -11 7 -30 12 -42 11 -13 -1 -23 2 -23 6 0 5 -11 7 -25 5 -14 -1 -25
1 -25 4 0 4 -14 8 -32 9 -18 2 -35 8 -39 14 -4 6 -11 8 -17 4 -6 -3 -13 -2
-17 3 -3 6 -12 8 -20 4 -8 -3 -15 1 -15 8 0 7 -3 9 -7 6 -3 -4 -13 -1 -21 6
-13 10 -14 9 -7 -2 6 -11 4 -13 -11 -7 -10 5 -25 9 -31 9 -7 0 -13 7 -13 16 0
14 -2 14 -10 1 -6 -9 -10 -11 -10 -3 0 7 -7 10 -17 6 -9 -4 -14 -2 -10 3 3 6
-3 11 -14 11 -11 1 -17 -3 -13 -9 4 -5 -5 -3 -18 6 -14 9 -28 13 -31 9 -4 -3
-7 -1 -7 6 0 8 -7 11 -15 7 -8 -3 -21 2 -30 10 -9 9 -15 11 -15 4 0 -6 -5 -8
-12 -3 -7 4 -24 9 -38 11 -13 2 -28 9 -32 15 -4 7 -8 8 -8 2 0 -5 -5 -3 -10 5
-8 12 -10 12 -10 1 0 -11 -3 -11 -15 -1 -8 7 -15 9 -15 5 0 -4 -7 -2 -15 5 -9
7 -18 10 -22 7 -3 -3 -18 0 -33 8 -21 11 -30 11 -40 2 -10 -9 -11 -9 -6 1 5 8
-1 13 -16 14 -22 1 -37 4 -48 8 -7 2 -32 9 -50 12 -8 2 -21 8 -29 12 -11 7
-12 6 -6 -5 7 -11 6 -12 -6 -2 -9 7 -29 13 -46 15 -18 1 -29 6 -27 10 3 4 -5
8 -18 8 -13 0 -36 7 -51 15 -15 8 -25 10 -22 5 3 -5 -7 -3 -22 5 -15 8 -37 15
-48 15 -12 0 -25 4 -30 9 -6 6 -32 12 -59 14 -26 2 -52 11 -57 18 -7 12 -9 11
-9 -1 0 -10 -3 -11 -8 -4 -4 6 -17 10 -29 9 -12 -1 -20 2 -17 7 4 7 -26 13
-48 9 -5 0 -8 3 -8 8 0 6 -9 10 -20 10 -11 1 -29 1 -40 2 -11 0 -20 4 -20 8 0
5 -15 12 -32 15 -18 4 -42 8 -53 10 -11 3 -26 5 -33 5 -7 1 -10 6 -6 12 4 7
-1 7 -16 -1 -15 -8 -20 -8 -16 -1 7 11 -4 15 -36 12 -10 -1 -18 2 -18 7 0 5
-12 7 -26 4 -20 -4 -25 -2 -19 8 5 9 4 11 -4 6 -6 -4 -19 -2 -28 6 -10 7 -14
8 -10 1 5 -7 0 -9 -13 -6 -11 3 -17 10 -13 16 4 6 0 8 -9 4 -9 -3 -26 2 -39
10 -15 11 -20 12 -14 3 6 -10 4 -11 -11 -5 -10 4 -27 8 -36 9 -10 0 -18 3 -18
7 0 4 -11 6 -25 4 -14 -1 -25 2 -25 6 0 5 -3 8 -7 8 -15 -3 -73 14 -73 20 0 4
-11 8 -25 9 -46 3 -55 5 -55 13 0 4 -9 6 -20 4 -11 -2 -22 1 -25 6 -4 5 -11 7
-16 4 -5 -4 -9 -2 -9 4 0 6 -7 8 -15 5 -8 -4 -15 -1 -15 5 0 6 -5 11 -11 11
-5 0 -7 -4 -4 -10 3 -6 -1 -7 -9 -4 -9 3 -16 9 -16 13 0 4 -11 8 -25 9 -14 1
-36 8 -48 17 -12 8 -33 16 -46 18 -12 2 -27 10 -32 18 -5 8 -9 9 -9 2 0 -8 -6
-8 -25 0 -14 7 -25 15 -25 19 0 3 -11 5 -25 3 -15 -1 -29 4 -35 14 -8 13 -9
14 -10 1 0 -12 -2 -12 -9 -2 -4 7 -18 14 -29 15 -12 1 -22 5 -22 10 0 4 -5 5
-10 2 -6 -3 -10 -2 -10 4 0 5 -8 8 -17 7 -10 -2 -24 3 -31 11 -8 7 -18 11 -23
8 -5 -4 -9 -1 -9 4 0 6 -11 11 -25 11 -14 0 -25 5 -25 12 0 6 -3 8 -7 5 -3 -4
-12 -2 -19 3 -6 6 -23 13 -35 15 -13 3 -25 9 -27 15 -2 5 -13 10 -23 10 -11 0
-17 5 -14 10 3 6 -2 10 -13 10 -10 0 -29 10 -42 23 -14 12 -27 22 -30 21 -13
-3 -49 29 -43 39 3 6 1 7 -6 3 -14 -9 -43 12 -36 25 3 4 -4 6 -15 4 -11 -2
-20 1 -20 6 0 14 -26 39 -41 39 -7 0 -10 3 -6 6 8 8 -38 54 -54 54 -7 0 -9 3
-6 7 4 3 -2 13 -13 20 -12 8 -17 20 -13 26 5 8 2 8 -9 0 -12 -11 -17 -9 -26
12 -6 14 -16 25 -22 25 -5 0 -10 9 -10 21 0 15 -5 19 -16 15 -8 -3 -12 -2 -9
4 3 6 1 10 -4 10 -6 0 -11 7 -11 15 0 8 -5 15 -11 15 -5 0 -7 5 -4 10 3 6 1
10 -5 10 -7 0 -9 7 -6 16 3 8 2 13 -2 11 -4 -3 -13 1 -20 9 -10 11 -10 14 0
14 6 0 3 7 -8 15 -10 8 -15 15 -11 15 5 0 1 7 -7 16 -9 8 -14 20 -11 25 4 5 1
9 -4 9 -6 0 -11 9 -11 20 0 11 -5 20 -11 20 -6 0 -9 9 -6 19 3 12 -1 22 -11
26 -12 4 -13 8 -3 18 9 9 6 16 -11 30 -13 10 -17 16 -10 12 6 -3 12 -2 12 4 0
5 -4 11 -10 13 -5 2 -11 15 -12 31 -1 15 -5 27 -9 27 -8 0 -35 91 -31 104 2 5
-1 12 -7 15 -6 4 -11 23 -13 44 -1 20 -6 37 -10 37 -13 0 -9 28 5 33 6 3 3 6
-8 6 -17 1 -17 3 -5 11 8 5 10 10 4 10 -6 0 -10 11 -9 25 2 14 -1 25 -6 25 -6
0 -5 9 2 21 6 12 7 19 1 15 -6 -3 -9 117 -10 327 0 239 3 334 12 339 8 5 7 8
-3 8 -10 0 -11 3 -3 13 11 13 11 42 -1 53 -3 4 -2 14 2 23 5 9 8 33 7 54 -2
20 1 37 4 37 4 0 6 10 5 23 -1 12 3 28 9 36 9 12 8 13 -3 6 -10 -5 -12 -4 -7
3 10 17 18 53 18 85 0 15 4 27 7 27 4 0 7 10 6 23 -1 12 2 30 7 40 6 11 5 17
-2 17 -7 0 -8 5 -3 13 4 6 8 19 8 27 0 8 4 21 8 28 5 7 4 12 -3 12 -6 0 -8 5
-5 10 4 6 8 23 11 38 3 15 7 34 11 42 3 8 7 35 8 60 2 25 4 45 5 45 2 0 4 16
5 35 2 19 4 39 4 43 1 5 7 5 13 1 10 -6 10 -4 0 8 -7 9 -9 18 -3 20 5 1 12 21
15 42 4 22 12 46 19 55 10 12 9 13 -3 6 -12 -7 -13 -6 -3 7 7 8 10 18 6 21 -3
4 -1 7 6 7 7 0 9 5 6 10 -4 6 -1 17 5 25 7 8 9 15 5 15 -4 0 -2 6 4 13 6 8 8
17 5 20 -3 3 -2 12 2 19 9 13 14 33 16 56 1 6 6 12 11 12 5 0 7 9 4 20 -3 11
-2 18 3 15 9 -6 20 18 20 45 0 10 7 26 16 34 12 12 12 16 2 16 -11 0 -11 2 0
9 7 4 14 16 16 25 1 10 9 22 17 27 9 6 10 9 2 9 -9 0 -6 11 7 35 12 21 15 35
8 35 -6 0 -4 8 5 18 10 10 14 22 10 25 -3 4 -1 7 5 7 6 0 9 9 7 19 -2 11 3 22
11 25 9 3 13 10 9 15 -3 5 -1 12 5 16 6 4 8 10 5 15 -3 4 2 11 11 14 13 5 14
9 5 20 -9 10 -8 15 4 20 9 3 14 10 10 15 -3 5 -1 12 5 16 6 4 8 11 5 16 -4 5
-1 9 5 9 6 0 8 5 5 10 -3 6 -1 10 4 10 6 0 10 3 9 8 -3 14 14 62 23 62 5 0 9
9 9 21 0 13 4 18 12 13 7 -5 8 -3 4 5 -5 7 0 19 10 27 11 9 13 12 6 9 -11 -6
-11 -3 0 16 14 24 26 41 43 62 6 7 17 28 25 47 8 19 21 40 29 46 8 7 11 16 6
24 -6 9 -4 11 4 6 8 -5 14 0 18 13 3 12 13 21 22 22 9 0 11 3 4 5 -8 4 -7 10
5 23 23 24 45 58 43 65 -2 10 23 34 31 29 5 -2 8 3 8 12 0 9 11 27 24 40 13
13 21 26 18 29 -3 3 0 6 6 6 7 0 12 7 12 15 0 7 8 19 18 24 9 6 14 11 10 11
-5 0 0 9 10 20 9 11 24 29 34 39 9 11 14 22 11 25 -4 3 -1 6 6 6 7 0 9 5 6 10
-3 6 -2 10 3 10 5 0 15 12 23 28 8 15 22 36 32 46 9 11 17 26 17 33 0 7 7 13
15 13 8 0 14 3 13 8 -1 4 3 17 10 28 6 12 8 24 4 28 -3 4 1 4 11 0 13 -5 16
-2 11 10 -3 9 -1 16 6 16 6 0 9 4 6 9 -3 5 1 11 9 15 8 3 15 12 15 21 0 8 5
15 10 15 6 0 18 16 27 35 9 19 20 35 25 35 4 0 8 7 8 16 0 8 4 13 9 10 5 -3
12 1 15 10 4 10 2 13 -7 9 -6 -4 -4 0 6 8 9 8 17 20 17 26 0 7 4 10 9 7 5 -3
12 1 15 10 4 10 2 13 -7 9 -6 -4 -5 -1 4 7 8 7 24 29 35 48 10 19 21 37 24 40
18 17 100 148 100 159 0 8 3 11 7 8 7 -7 30 21 31 37 0 5 7 13 16 18 9 5 14
13 11 19 -4 5 0 9 8 9 7 0 20 11 27 25 7 14 17 25 22 25 4 0 8 7 8 16 0 8 5
12 10 9 6 -3 10 1 10 9 0 9 5 16 11 16 6 0 8 7 5 16 -3 8 -2 13 2 11 4 -2 23
12 42 31 19 19 29 32 21 27 -10 -5 -12 -4 -7 3 4 7 14 12 22 12 8 0 13 4 11 8
-1 4 14 23 33 42 19 19 34 38 33 42 -2 4 3 8 11 8 8 0 19 12 24 28 6 15 11 21
11 14 1 -7 6 -10 11 -7 6 4 8 11 5 16 -4 5 -2 9 3 9 14 0 57 41 55 51 -3 8 11
13 30 10 4 0 7 5 7 13 0 8 9 18 20 21 11 3 20 13 20 21 0 8 7 14 15 14 8 0 25
11 37 25 11 13 25 22 30 19 4 -3 8 2 8 10 0 9 7 16 16 16 9 0 12 5 8 12 -5 8
-2 9 10 5 9 -4 15 -3 13 1 -3 4 1 13 9 20 8 7 14 10 14 6 0 -4 9 3 20 16 11
13 20 19 20 15 0 -5 7 0 15 11 8 10 15 15 15 10 0 -5 8 1 19 12 10 12 23 22
30 22 6 0 11 5 11 10 0 6 7 10 15 10 9 0 18 7 21 15 4 8 10 12 15 9 5 -3 9 0
9 5 0 6 8 11 18 11 9 0 23 9 30 20 7 12 17 18 22 15 6 -3 10 -1 10 5 0 6 5 8
10 5 6 -3 10 -2 10 2 0 5 9 14 21 21 17 11 20 11 14 0 -6 -10 -5 -11 6 0 7 6
21 12 31 12 10 0 18 5 18 10 0 6 8 10 18 10 18 0 114 31 122 40 3 3 13 6 23 7
34 1 38 3 32 13 -3 6 -1 10 4 10 6 0 11 -6 11 -12 0 -9 3 -8 10 2 5 8 12 11
16 7 4 -4 12 -3 18 2 6 6 25 12 41 15 17 2 31 5 33 5 1 1 4 0 5 -1 2 -2 10 2
18 8 8 5 26 10 42 9 15 0 27 3 27 7 0 4 10 8 23 8 30 -1 60 5 72 12 6 3 22 5
37 3 16 -2 30 1 34 6 3 5 10 9 15 9 6 0 7 -6 3 -12 -6 -10 -4 -10 7 -2 8 6 22
10 32 9 9 -2 17 2 17 8 0 8 3 7 9 -1 7 -12 12 -12 31 0z"/>
<path d="M3790 5995 c11 -14 10 -14 -14 -5 -18 6 -25 6 -21 0 3 -6 4 -10 1
-10 -2 0 -16 4 -31 10 -14 5 -24 6 -21 1 3 -5 -4 -11 -15 -14 -16 -4 -19 -2
-15 10 5 13 4 14 -9 3 -8 -7 -15 -9 -15 -6 0 4 -10 2 -21 -5 -16 -8 -20 -8
-14 1 6 9 3 9 -13 1 -27 -14 -35 -14 -26 2 6 9 5 9 -8 0 -8 -8 -32 -11 -56 -9
-23 2 -45 0 -48 -5 -3 -5 -10 -7 -15 -4 -5 4 -9 0 -9 -7 0 -9 -3 -9 -10 2 -7
11 -10 11 -10 2 0 -7 -4 -10 -10 -7 -5 3 -10 1 -10 -5 0 -7 -6 -8 -18 -1 -12
6 -23 5 -36 -5 -14 -10 -24 -10 -39 -3 -15 9 -18 8 -12 -2 6 -9 3 -11 -8 -6
-10 3 -17 2 -17 -3 0 -5 -6 -7 -14 -4 -8 3 -17 0 -21 -6 -6 -9 -10 -9 -16 1
-7 11 -9 11 -9 1 0 -7 -4 -10 -10 -7 -5 3 -10 1 -10 -6 0 -8 -4 -8 -15 1 -13
11 -14 10 -9 -4 5 -14 2 -16 -20 -12 -15 3 -26 0 -26 -6 0 -6 -7 -5 -17 3 -10
7 -15 9 -11 5 14 -17 -12 -37 -33 -25 -11 5 -19 6 -18 2 3 -20 -2 -27 -11 -13
-8 13 -10 13 -10 -2 0 -12 -5 -15 -17 -11 -11 4 -14 3 -9 -5 4 -8 2 -10 -7 -6
-8 3 -18 -3 -22 -13 -7 -17 -8 -17 -15 2 -7 17 -9 17 -9 3 -1 -10 -8 -18 -16
-18 -8 0 -15 -4 -15 -9 0 -5 -18 -16 -41 -25 -22 -9 -37 -21 -34 -26 4 -6 3
-10 -2 -9 -20 3 -44 -2 -40 -8 5 -10 -30 -43 -37 -36 -3 4 -6 1 -6 -5 0 -7 -7
-12 -15 -12 -8 0 -15 -7 -15 -15 0 -8 -7 -15 -16 -15 -11 0 -14 -5 -10 -16 5
-12 2 -15 -10 -10 -12 4 -15 2 -10 -9 3 -9 0 -15 -9 -15 -8 0 -15 -5 -15 -11
0 -7 -8 -18 -17 -26 -10 -8 -12 -12 -5 -8 6 3 12 1 12 -4 0 -10 -13 -15 -31
-13 -4 1 -6 -6 -5 -16 0 -10 -5 -16 -13 -14 -12 3 -12 0 -1 -12 8 -11 9 -16 1
-16 -6 0 -11 -6 -11 -14 0 -8 -7 -17 -16 -20 -8 -3 -12 -10 -9 -16 3 -5 -1
-10 -11 -10 -11 0 -15 -6 -11 -20 3 -11 1 -18 -4 -14 -5 3 -9 0 -9 -6 0 -6 -4
-8 -10 -5 -6 4 -7 -1 -3 -11 4 -11 2 -15 -4 -11 -6 4 -10 -3 -9 -16 0 -12 -4
-21 -10 -20 -7 1 -11 -5 -10 -15 0 -10 -6 -16 -16 -16 -14 1 -16 -2 -7 -17 7
-13 6 -19 -1 -19 -6 0 -16 -13 -21 -30 -6 -16 -15 -28 -19 -25 -4 3 -7 -1 -7
-8 2 -14 -34 -89 -46 -98 -4 -3 -9 -17 -11 -30 -2 -13 -7 -32 -11 -41 -4 -10
-5 -24 -2 -32 3 -8 -2 -17 -11 -21 -14 -5 -14 -7 -2 -16 11 -8 12 -12 2 -16
-6 -2 -9 -10 -5 -16 11 -17 13 -38 3 -32 -5 3 -7 -3 -5 -12 2 -10 4 -22 4 -26
1 -5 6 -5 13 -1 7 4 8 3 4 -5 -4 -6 -2 -19 5 -27 10 -12 9 -13 -7 -8 -17 5
-17 4 -4 -8 8 -7 16 -20 18 -27 2 -8 10 -20 19 -26 10 -8 13 -17 8 -26 -7 -11
-5 -11 10 1 10 8 16 11 13 5 -7 -13 17 -36 28 -27 5 4 2 -1 -6 -11 -7 -10 -9
-17 -4 -16 28 5 55 -2 48 -13 -4 -7 -4 -10 1 -6 4 4 15 2 23 -5 13 -9 14 -9 8
1 -9 15 -7 15 32 1 19 -6 30 -16 26 -22 -3 -7 2 -3 11 8 14 17 17 18 25 5 7
-10 10 -11 10 -2 0 6 12 12 26 12 17 0 23 4 18 13 -5 9 -4 9 6 0 15 -14 43 -6
33 10 -4 7 0 8 12 3 16 -6 16 -4 4 11 -8 9 -9 14 -2 10 14 -9 45 2 38 14 -3 4
4 13 16 19 11 7 18 14 15 17 -3 3 2 12 12 19 14 11 14 14 2 14 -8 1 -1 8 15
16 17 8 22 12 13 10 -15 -4 -16 -2 -6 22 7 15 17 33 22 41 8 11 8 13 -1 7 -9
-5 -11 -2 -7 8 3 9 10 16 16 16 5 0 6 5 3 11 -4 6 3 20 15 31 17 16 19 22 8
29 -9 6 -7 9 10 9 14 0 21 4 17 11 -4 6 1 17 11 25 11 9 13 13 4 9 -10 -4 -9
-2 3 8 20 16 23 32 5 21 -9 -5 -9 -3 1 9 7 9 18 14 24 10 6 -4 8 0 4 10 -4 10
-1 17 5 17 6 0 8 3 5 7 -4 3 0 11 9 17 8 6 16 21 16 33 1 13 7 19 15 16 8 -3
13 -2 12 3 -4 16 13 44 22 38 5 -3 9 0 9 5 0 6 -6 11 -12 11 -7 1 -2 7 12 15
14 8 19 14 11 15 -17 0 -5 15 12 15 7 0 12 6 12 13 0 6 4 12 8 12 4 -1 21 13
37 30 29 31 46 40 35 18 -4 -7 -1 -6 7 2 7 8 22 22 32 30 16 12 18 12 11 1 -9
-16 7 -8 39 18 11 9 16 10 12 4 -5 -9 -2 -11 8 -7 9 3 13 11 10 16 -4 6 4 4
17 -3 21 -11 23 -10 11 3 -11 13 -8 15 18 12 21 -3 29 0 24 8 -4 7 -3 8 5 4 6
-4 19 -2 28 6 12 9 15 9 9 1 -9 -16 6 -17 22 -1 8 8 15 8 27 -2 13 -11 14 -10
9 4 -5 14 -3 15 21 6 24 -9 26 -9 16 4 -10 11 -9 14 1 12 7 -1 18 -5 25 -9 6
-4 15 -2 18 4 4 5 14 8 22 5 11 -5 13 -2 9 11 -6 16 -6 16 11 0 12 -10 23 -13
33 -7 8 5 18 6 22 4 4 -3 8 1 8 8 0 9 3 9 10 -2 8 -13 10 -13 10 -1 0 11 4 9
15 -5 8 -10 14 -14 13 -9 -2 6 2 12 7 13 6 2 16 9 24 15 11 9 13 9 8 0 -4 -6
-3 -14 3 -18 5 -3 10 -1 10 4 0 6 7 11 15 11 8 0 15 -5 15 -12 0 -6 7 -3 16 8
8 10 13 13 9 7 -3 -7 -2 -13 4 -13 5 0 11 6 14 13 3 9 7 9 19 -1 10 -8 19 -9
22 -3 3 5 15 7 26 4 12 -3 20 0 20 8 0 8 6 5 16 -7 8 -10 13 -13 9 -6 -7 13 1
14 30 3 11 -4 34 -5 51 -1 27 6 31 5 26 -9 -5 -13 -3 -14 10 -3 13 10 17 10
21 -2 4 -9 14 -12 26 -9 12 3 29 -1 38 -8 15 -12 16 -12 8 1 -7 12 -6 13 6 3
12 -10 18 -10 29 0 10 10 11 9 5 -2 -6 -11 -3 -13 13 -9 12 4 20 3 17 -2 -3
-4 2 -11 11 -14 9 -4 13 -2 8 5 -4 7 -1 10 7 7 8 -3 13 -11 11 -18 -3 -11 0
-11 12 0 12 9 16 10 16 0 0 -7 7 -10 15 -6 8 3 15 1 15 -4 0 -5 7 -7 15 -3 10
3 15 0 13 -8 -2 -7 3 -13 10 -14 8 0 19 -8 26 -17 7 -10 16 -15 19 -11 4 3 7
-1 7 -11 0 -9 5 -14 10 -11 6 3 10 -2 10 -11 0 -10 3 -15 6 -11 9 8 33 -16 26
-27 -3 -5 2 -6 12 -3 10 4 15 3 11 -3 -3 -6 1 -13 9 -16 9 -3 13 -11 9 -17 -3
-5 -1 -7 4 -4 13 8 46 -27 36 -37 -4 -4 0 -4 10 0 10 3 17 1 17 -6 0 -6 5 -8
13 -4 9 6 9 4 -1 -8 -11 -14 -10 -16 5 -14 22 4 47 -29 37 -47 -5 -8 -2 -8 9
2 15 11 17 11 17 -2 0 -8 8 -21 18 -28 16 -13 16 -12 3 6 -8 11 1 4 21 -15 19
-19 33 -38 31 -42 -2 -5 3 -8 11 -8 15 0 21 -12 17 -34 -1 -5 5 -6 13 -3 11 4
18 -1 22 -18 3 -14 10 -22 15 -19 5 3 9 -3 9 -14 0 -10 11 -24 25 -30 16 -8
23 -17 19 -27 -4 -9 -3 -15 2 -13 5 2 10 -1 11 -5 1 -5 11 -17 22 -26 11 -10
18 -20 16 -23 -3 -3 1 -11 10 -18 8 -7 15 -18 15 -25 0 -7 7 -18 15 -25 8 -7
12 -16 9 -21 -3 -5 0 -9 6 -9 7 0 9 -7 6 -16 -3 -8 -2 -13 3 -10 5 3 12 -1 15
-10 3 -8 2 -12 -4 -9 -6 3 -7 -1 -4 -9 3 -9 10 -16 16 -16 5 0 6 -5 3 -10 -4
-6 -1 -18 6 -26 6 -8 9 -17 6 -21 -4 -3 -2 -14 4 -24 7 -13 6 -19 -1 -19 -6 0
-8 -5 -4 -12 11 -17 14 -79 4 -73 -11 7 -6 -22 5 -32 4 -4 5 -2 0 6 -6 10 -4
12 4 6 9 -5 9 -11 3 -17 -6 -6 -8 -17 -5 -26 5 -11 3 -13 -8 -7 -12 8 -12 6 0
-8 12 -15 11 -17 -5 -17 -15 0 -16 -2 -5 -9 13 -8 13 -12 1 -27 -8 -9 -15 -22
-16 -28 0 -6 -2 -17 -2 -24 -1 -7 -6 -11 -11 -8 -5 4 -7 -3 -4 -14 3 -12 0
-20 -6 -20 -7 0 -9 -4 -6 -10 3 -5 1 -10 -5 -10 -6 0 -8 -5 -5 -10 9 -15 -14
-41 -29 -33 -6 3 -8 3 -4 -1 8 -9 -32 -51 -49 -51 -7 0 -20 -9 -28 -20 -9 -11
-13 -14 -10 -7 6 11 3 11 -13 1 -12 -7 -19 -16 -16 -20 2 -4 -7 -6 -21 -3 -17
3 -24 0 -23 -8 2 -8 -9 -14 -25 -16 -17 -2 -25 -8 -21 -14 5 -7 0 -9 -14 -6
-12 3 -29 -1 -39 -11 -10 -9 -25 -17 -32 -19 -7 -1 -20 -9 -28 -18 -12 -11
-18 -12 -29 -3 -11 9 -14 8 -14 -5 0 -9 -5 -16 -11 -16 -5 0 -7 4 -4 10 3 6
-1 7 -9 4 -9 -3 -14 -10 -11 -14 3 -5 -4 -6 -15 -3 -12 3 -20 0 -20 -7 0 -10
-3 -10 -15 0 -12 10 -16 9 -21 -3 -3 -9 -12 -13 -20 -10 -8 3 -14 -1 -14 -8 0
-11 -3 -11 -10 1 -8 12 -10 12 -10 1 0 -11 -3 -11 -17 0 -10 9 -14 9 -10 2 9
-14 -55 -29 -74 -17 -8 5 -10 3 -4 -5 5 -9 2 -12 -11 -9 -11 2 -25 -3 -32 -12
-8 -8 -11 -9 -7 -2 3 6 1 12 -4 12 -6 0 -11 -4 -11 -8 0 -5 -10 -8 -22 -7 -13
1 -26 -3 -30 -9 -6 -8 -11 -6 -18 4 -6 10 -10 11 -10 3 0 -7 -7 -10 -15 -7 -8
4 -15 1 -15 -6 0 -10 -3 -10 -15 0 -12 10 -15 10 -15 0 0 -10 -3 -10 -15 0
-10 8 -15 9 -15 2 0 -7 -7 -9 -17 -5 -12 5 -14 3 -8 -8 8 -12 6 -12 -8 0 -9 7
-17 10 -17 5 0 -5 -12 -10 -27 -11 -19 -1 -22 1 -12 8 8 5 9 9 4 9 -6 0 -15
-4 -21 -10 -5 -5 -26 -10 -47 -12 -21 -1 -40 -6 -43 -10 -3 -4 -12 -4 -21 -1
-11 4 -14 3 -9 -5 5 -8 2 -10 -8 -6 -9 3 -13 11 -10 18 3 6 -2 2 -11 -9 -9
-11 -23 -19 -31 -17 -8 2 -14 -2 -14 -8 0 -5 -3 -9 -7 -8 -16 3 -63 -22 -63
-33 0 -8 -5 -7 -17 2 -10 7 -15 9 -11 5 4 -5 0 -15 -10 -23 -9 -8 -11 -12 -5
-8 8 4 11 1 7 -9 -3 -9 -12 -12 -22 -9 -9 4 -13 2 -9 -2 4 -5 -3 -15 -15 -23
-16 -9 -17 -12 -4 -7 16 5 17 3 6 -10 -7 -8 -9 -15 -4 -15 5 0 3 -4 -5 -9 -8
-5 -16 -29 -18 -53 -3 -23 -9 -46 -15 -49 -6 -4 -5 -9 3 -12 12 -4 11 -7 -1
-16 -11 -8 -12 -11 -2 -11 7 0 10 -4 7 -10 -12 -20 -14 -50 -2 -50 8 0 7 -3
-2 -9 -7 -5 -11 -15 -9 -22 3 -8 -2 -20 -11 -27 -9 -8 -11 -11 -5 -8 7 3 14
-3 17 -14 3 -11 2 -18 -3 -15 -4 3 -10 -2 -14 -10 -3 -8 0 -15 6 -15 7 0 7 -4
1 -12 -5 -7 -9 -32 -9 -55 1 -24 -3 -43 -8 -43 -5 0 -4 -6 2 -13 9 -10 8 -19
-3 -34 -8 -12 -12 -29 -8 -39 4 -12 3 -15 -5 -10 -8 5 -10 2 -6 -8 3 -9 11
-13 18 -9 6 3 6 1 -1 -8 -7 -7 -13 -25 -13 -40 0 -15 -4 -31 -10 -34 -5 -3
-10 -12 -10 -18 0 -7 4 -6 10 3 8 13 10 12 10 -3 0 -10 -5 -28 -11 -39 -8 -16
-8 -19 1 -13 9 6 9 2 1 -14 -9 -16 -9 -21 1 -21 9 0 10 -3 2 -8 -6 -4 -11 -31
-10 -60 1 -28 -3 -52 -7 -52 -5 0 -5 -5 -2 -10 4 -6 1 -18 -7 -27 -11 -14 -11
-16 3 -11 13 5 16 2 12 -13 -3 -10 -10 -19 -17 -19 -6 0 -5 -4 3 -9 13 -8 13
-12 0 -27 -9 -11 -9 -15 -1 -10 6 4 12 3 12 -3 0 -5 -5 -13 -10 -16 -8 -5 -7
-11 1 -21 9 -11 8 -18 -2 -31 -12 -15 -12 -16 5 -10 16 6 17 5 6 -8 -7 -8 -9
-15 -4 -15 5 0 2 -5 -6 -10 -8 -5 -10 -10 -4 -10 7 0 15 -7 18 -16 4 -10 2
-13 -6 -8 -8 5 -9 2 -5 -9 3 -10 2 -17 -4 -17 -6 0 -3 -8 7 -17 15 -16 15 -17
-2 -23 -16 -6 -16 -7 -1 -13 9 -3 17 -11 17 -17 0 -6 -6 -8 -12 -4 -10 5 -10
4 -1 -6 6 -7 9 -19 6 -28 -4 -10 -2 -13 5 -8 16 10 15 -7 0 -23 -11 -10 -10
-11 3 -6 10 4 20 2 24 -4 3 -6 0 -11 -7 -11 -10 0 -9 -3 2 -9 8 -6 19 -7 25
-3 5 3 4 -2 -4 -11 -9 -11 -9 -17 -2 -17 6 0 23 -14 38 -31 36 -40 65 -57 56
-32 -6 16 -5 16 10 5 9 -8 13 -20 9 -30 -5 -15 -3 -15 13 1 10 10 21 14 24 9
3 -5 14 -8 24 -6 9 1 17 -3 17 -9 0 -7 5 -5 10 3 9 13 10 13 11 0 0 -10 3 -8
9 5 8 18 9 18 9 2 1 -10 6 -15 11 -12 6 4 8 10 5 14 -2 5 9 7 25 6 16 -1 28 0
27 4 -1 3 2 7 6 8 4 1 15 9 24 18 8 9 22 14 30 11 8 -3 12 -2 8 3 -3 5 2 16
10 24 8 9 15 20 15 26 0 6 7 11 15 11 9 0 12 6 8 17 -4 9 -2 14 3 10 6 -3 10
2 11 11 2 27 11 66 19 86 5 12 4 17 -3 13 -5 -3 -10 0 -10 8 0 8 4 12 9 9 4
-3 8 0 8 5 0 6 -6 11 -12 11 -9 0 -9 3 1 9 13 8 13 12 0 27 -8 10 -9 15 -3 11
7 -4 14 2 17 13 3 12 1 17 -5 14 -12 -8 -6 29 7 38 6 5 6 8 -1 8 -7 0 -15 7
-18 16 -3 8 -2 13 3 10 5 -3 11 1 15 9 3 8 -3 19 -12 24 -9 6 -12 11 -5 11 7
0 10 7 6 17 -5 12 -3 14 8 8 11 -6 12 -5 2 6 -19 20 -16 33 5 18 16 -13 16
-12 3 4 -20 25 -22 60 -4 53 9 -4 11 -2 6 7 -10 17 -12 77 -1 71 12 -8 5 19
-7 28 -6 5 -4 8 5 8 13 0 13 1 0 10 -12 8 -12 10 -1 10 10 0 11 3 2 14 -7 9
-8 17 -2 20 5 3 8 17 6 31 -1 14 1 25 4 25 4 0 6 17 5 38 -2 22 4 44 14 55 15
16 15 17 0 12 -17 -7 -20 17 -3 32 4 5 5 1 0 -7 -5 -8 -4 -12 0 -7 14 12 15
37 2 37 -7 0 -5 5 3 10 8 5 10 10 4 10 -6 0 -11 6 -11 14 0 9 6 12 16 8 13 -5
14 -3 4 9 -10 12 -10 18 0 29 9 10 9 11 0 6 -7 -4 -13 -2 -13 3 0 6 5 11 11
11 8 0 7 6 -2 17 -10 12 -11 15 -1 9 9 -6 11 -1 8 19 -4 23 -3 25 10 14 12
-10 13 -9 8 4 -5 13 0 15 21 11 19 -3 25 -1 20 8 -4 7 1 4 9 -6 14 -17 16 -18
16 -3 0 14 4 15 26 7 17 -7 23 -7 19 0 -4 7 3 9 19 6 14 -3 26 0 26 5 0 5 5 9
11 9 5 0 7 -6 3 -12 -6 -10 -5 -10 8 -1 8 7 18 10 21 6 4 -3 7 -1 7 5 0 7 5
12 11 12 5 0 8 -4 4 -9 -3 -5 0 -13 6 -17 7 -4 9 -3 6 3 -4 6 0 16 7 22 9 7
17 8 20 2 3 -5 15 -7 27 -4 16 4 17 8 7 14 -9 6 -9 9 -1 9 6 0 15 -5 18 -10 5
-8 11 -8 19 -1 7 6 16 8 19 4 4 -3 7 -2 7 4 0 6 7 14 16 17 8 3 12 2 9 -4 -3
-6 -1 -10 4 -10 6 0 11 5 11 11 0 8 4 8 14 0 10 -8 16 -9 21 -1 3 6 11 7 17 4
7 -4 8 -2 4 4 -4 7 -1 12 8 12 8 0 17 -6 19 -12 4 -8 6 -7 6 3 1 9 8 20 17 23
8 3 12 2 9 -4 -9 -14 8 -12 24 3 11 10 13 9 7 -3 -5 -11 -4 -10 6 2 11 12 18
14 33 6 11 -6 17 -8 13 -3 -12 13 15 34 30 23 8 -7 12 -7 12 1 0 7 5 9 10 6 6
-3 13 1 16 9 4 11 12 13 29 6 20 -8 23 -6 18 7 -5 13 -2 15 16 10 14 -3 24 0
28 9 3 8 9 11 14 8 5 -3 9 0 9 5 0 6 3 11 8 10 18 -3 51 14 45 24 -3 6 -1 7 6
3 6 -4 23 0 38 9 14 9 22 12 19 6 -4 -6 -2 -11 3 -11 6 0 11 7 11 16 0 8 4 13
9 9 5 -3 13 0 16 6 4 5 13 8 21 5 8 -3 13 -2 13 2 -3 19 2 25 11 12 8 -13 10
-12 10 4 0 12 5 16 15 12 10 -4 19 2 25 17 5 12 9 16 9 9 1 -10 4 -10 15 0 8
7 12 17 9 21 -3 5 4 4 16 -2 17 -10 20 -9 15 4 -4 10 -2 15 7 13 8 -2 13 2 12
9 -2 7 6 10 17 8 12 -2 20 2 20 9 0 20 47 49 54 33 3 -6 4 -3 3 8 -1 12 3 19
11 17 8 -1 11 2 8 7 -4 5 -1 13 5 17 6 3 15 0 20 -7 6 -10 8 -8 6 8 0 12 -5
19 -11 16 -5 -4 -6 -1 -2 6 5 7 15 10 23 6 14 -5 14 -3 2 12 -11 13 -11 15 -1
9 9 -5 15 -1 19 14 3 11 11 19 18 16 8 -3 10 4 7 21 -4 20 -2 24 8 18 10 -6
12 -4 7 8 -3 10 -2 17 4 17 5 0 9 6 8 13 -3 24 1 37 12 37 8 0 7 -6 -2 -17
-11 -16 -11 -16 1 -5 8 7 16 22 16 32 3 38 4 41 14 35 6 -4 7 1 3 11 -5 13 -3
15 7 9 9 -5 11 -4 6 4 -4 6 -2 19 6 28 11 14 11 16 -2 9 -12 -6 -11 -4 1 6 9
7 14 19 11 27 -3 8 0 11 6 7 7 -4 9 1 7 14 -2 11 0 20 4 20 4 0 6 13 5 30 -1
16 2 28 6 25 4 -3 10 4 13 15 3 11 1 18 -4 14 -5 -3 -9 0 -9 5 0 6 6 11 13 11
8 0 7 4 -3 10 -13 8 -12 10 3 10 17 0 17 1 3 16 -11 11 -13 21 -7 32 6 11 5
25 -2 37 -9 17 -8 18 4 8 12 -10 15 -8 15 7 0 10 -4 16 -9 13 -5 -3 -6 4 -2
17 6 17 4 21 -6 14 -12 -6 -12 -5 0 9 7 9 10 17 5 17 -5 0 -2 5 6 10 10 6 11
10 3 10 -7 0 -13 12 -13 26 0 16 4 23 11 18 6 -3 3 5 -6 20 -17 25 -17 26 1
20 16 -5 17 -4 3 5 -9 6 -15 22 -14 38 1 15 -3 31 -9 35 -7 5 -6 8 4 8 11 0
12 2 3 8 -7 4 -13 22 -15 40 -1 18 -6 32 -11 32 -5 0 -7 7 -3 15 3 8 0 15 -7
15 -8 0 -6 4 3 10 13 8 12 10 -4 10 -13 0 -17 5 -13 20 3 11 1 20 -3 20 -5 0
-7 10 -5 21 3 12 2 19 -2 16 -3 -4 -12 1 -19 11 -19 24 -17 40 2 16 11 -13 10
-10 -2 14 -10 17 -21 32 -25 32 -4 0 -10 7 -13 16 -6 15 -4 15 11 3 16 -12 16
-11 0 8 -12 13 -16 27 -11 35 5 9 2 8 -11 -2 -17 -14 -18 -13 -13 2 4 9 1 18
-5 21 -7 3 -21 19 -31 37 -13 23 -15 31 -5 26 8 -4 4 1 -8 12 -13 11 -23 25
-23 31 0 6 -4 11 -10 11 -5 0 -10 7 -10 15 0 8 -8 15 -17 15 -15 0 -16 2 -3
10 13 8 12 10 -2 10 -10 0 -18 7 -18 15 0 9 -7 18 -15 21 -8 3 -17 14 -20 25
-4 11 -11 16 -17 13 -8 -5 -9 -1 -5 10 4 10 3 15 -3 11 -6 -3 -13 1 -16 9 -3
9 -10 13 -15 10 -5 -3 -6 2 -3 10 4 11 0 16 -12 16 -14 0 -16 2 -6 9 10 6 8
10 -8 14 -16 4 -21 11 -16 22 3 9 2 14 -3 10 -13 -7 -42 5 -35 16 3 5 -3 9
-13 9 -15 0 -16 2 -3 10 12 8 10 10 -8 10 -13 0 -20 4 -17 10 3 6 1 10 -5 10
-6 0 -8 5 -4 13 5 7 0 6 -11 -3 -10 -8 -16 -10 -12 -4 8 14 -20 54 -39 54 -13
0 -19 13 -15 34 1 5 -6 3 -16 -4 -10 -8 -15 -11 -11 -6 8 9 -15 36 -30 36 -15
0 -53 46 -45 55 5 4 2 5 -4 1 -7 -4 -13 -2 -13 4 0 6 -8 14 -17 17 -23 9 -63
49 -63 63 0 6 -3 9 -7 7 -11 -7 -33 19 -25 27 3 4 -1 4 -11 0 -11 -4 -19 0
-23 10 -3 9 -12 16 -20 16 -8 0 -14 5 -14 10 0 6 -7 10 -15 10 -8 0 -15 5 -15
10 0 6 -7 10 -16 10 -9 0 -12 5 -8 13 5 8 2 8 -9 -2 -15 -12 -17 -11 -17 8 0
13 -4 19 -10 16 -6 -4 -7 -12 -3 -18 3 -7 -3 -4 -14 6 -11 9 -23 14 -26 10 -4
-3 -7 -1 -7 6 0 7 -4 9 -10 6 -5 -3 -10 -2 -10 3 0 6 -7 13 -16 16 -8 3 -12 2
-9 -4 3 -6 1 -10 -5 -10 -6 0 -13 7 -17 16 -5 13 -7 13 -14 2 -6 -9 -9 -9 -9
-1 0 6 -9 10 -20 8 -13 -3 -18 0 -14 7 5 7 1 9 -9 5 -10 -4 -17 -2 -17 5 0 6
-6 5 -17 -3 -14 -12 -16 -12 -8 0 6 11 4 13 -7 8 -9 -3 -21 0 -27 6 -8 8 -11
8 -11 -2 0 -7 -5 -9 -10 -6 -6 4 -7 11 -4 17 4 6 0 6 -13 -1 -11 -6 -23 -7
-27 -4 -6 7 -29 13 -53 15 -7 1 -13 6 -13 11 0 5 -7 4 -15 -3 -12 -10 -15 -10
-15 0 0 8 -3 10 -7 7 -3 -4 -13 -1 -21 6 -13 10 -14 9 -8 -2 6 -9 5 -12 -5 -9
-8 3 -13 12 -11 19 1 8 -4 7 -12 -5 -15 -18 -42 -14 -30 5 3 6 -4 5 -15 -3
-18 -11 -23 -11 -31 2 -8 12 -10 12 -10 1 0 -11 -3 -11 -17 0 -9 8 -14 9 -10
3 4 -7 -5 -11 -24 -12 -16 0 -27 3 -24 8 3 4 -2 7 -11 6 -8 -1 -20 -9 -25 -17
-5 -8 -9 -9 -9 -3 0 7 -7 15 -16 18 -14 5 -15 4 -4 -9z m-295 -35 c3 -6 -1 -7
-9 -4 -18 7 -21 14 -7 14 6 0 13 -4 16 -10z m1145 -1914 c0 -2 -8 -10 -17 -17
-16 -13 -17 -12 -4 4 13 16 21 21 21 13z m-1075 -1756 c10 -11 16 -20 13 -20
-3 0 -13 9 -23 20 -10 11 -16 20 -13 20 3 0 13 -9 23 -20z"/>
<path d="M4800 5646 c0 -2 8 -10 18 -17 15 -13 16 -12 3 4 -13 16 -21 21 -21
13z"/>
<path d="M3657 1906 c4 -5 0 -7 -9 -3 -9 3 -21 0 -28 -6 -10 -9 -11 -9 -5 3 6
12 5 13 -6 3 -7 -7 -21 -13 -32 -13 -10 0 -15 -4 -12 -10 3 -5 -1 -10 -10 -10
-10 0 -13 5 -9 13 4 7 3 9 -2 4 -5 -5 -9 -14 -9 -20 -1 -7 -6 -11 -13 -9 -11
2 -16 -10 -13 -30 0 -4 -7 -4 -16 -1 -12 5 -14 3 -8 -7 6 -10 4 -12 -7 -7 -12
4 -14 1 -11 -14 3 -10 0 -26 -7 -34 -6 -8 -8 -20 -4 -27 6 -10 3 -9 -9 1 -15
12 -17 11 -14 -5 1 -11 7 -25 11 -33 6 -9 5 -12 -2 -7 -7 4 -10 -4 -10 -22 1
-16 -2 -34 -6 -41 -4 -7 -2 -10 5 -9 8 2 13 -9 13 -28 1 -17 9 -39 19 -48 9
-10 17 -22 17 -27 0 -5 12 -15 26 -21 16 -7 24 -18 21 -28 -3 -12 3 -16 26
-15 19 0 32 -6 34 -15 4 -13 3 -13 -6 0 -6 8 -11 10 -11 4 0 -18 13 -24 27
-13 10 9 13 7 13 -7 1 -18 1 -18 12 0 11 19 11 19 24 1 10 -14 14 -15 14 -4 0
11 2 12 9 0 6 -9 11 -10 15 -2 4 6 12 11 17 11 6 0 7 -5 3 -11 -3 -6 5 -3 20
6 25 17 26 17 20 -1 -6 -16 -4 -15 12 3 10 13 29 24 42 26 12 2 28 9 35 17 10
10 9 11 -3 5 -20 -10 19 28 45 44 18 11 18 12 1 7 -16 -5 -17 -4 -7 8 7 8 20
12 29 8 15 -5 15 -4 0 12 -22 22 -23 27 -1 19 13 -5 15 -2 11 15 -4 13 0 23 9
26 12 5 13 9 3 21 -9 10 -9 15 -1 15 6 0 11 5 11 11 0 6 -6 9 -13 6 -7 -3 -13
3 -13 14 0 12 4 15 11 9 14 -11 14 25 0 37 -4 5 -5 2 0 -6 6 -10 4 -12 -4 -7
-9 6 -9 11 0 22 10 12 10 15 -2 12 -8 -2 -15 7 -17 20 -2 12 -8 22 -13 22 -5
0 -9 8 -9 18 0 11 -10 27 -22 38 l-23 19 20 -24 c11 -14 14 -21 7 -17 -8 5
-23 22 -34 40 -11 17 -18 23 -15 14 4 -12 2 -15 -9 -11 -8 3 -13 11 -10 18 3
9 -2 11 -16 7 -15 -4 -19 -2 -13 7 6 10 3 11 -13 2 -12 -6 -23 -7 -26 -2 -3 5
-19 11 -35 13 -18 3 -28 0 -24 -6z"/>
</g>
</svg>
