<?xml version="1.0" standalone="no"?>
<!DOCTYPE svg PUBLIC "-//W3C//DTD SVG 20010904//EN"
 "http://www.w3.org/TR/2001/REC-SVG-20010904/DTD/svg10.dtd">
<svg version="1.0" xmlns="http://www.w3.org/2000/svg"
 width="650.000000pt" height="490.000000pt" viewBox="0 0 650.000000 490.000000"
 preserveAspectRatio="xMidYMid meet">

<g transform="translate(0.000000,490.000000) scale(0.100000,-0.100000)"
fill="#000000" stroke="none">
<path d="M3187 4184 c-3 -3 -3 -12 -1 -19 3 -7 -2 -15 -11 -19 -13 -5 -15 -1
-10 14 4 12 2 20 -5 20 -16 0 -6 -70 11 -81 21 -13 31 2 14 21 -15 17 -14 18
14 28 17 6 31 14 31 18 0 3 -7 4 -15 1 -8 -4 -17 -2 -20 3 -3 4 1 11 7 13 7 3
8 6 2 6 -6 1 -13 -2 -17 -5z"/>
<path d="M3240 4170 c0 -5 5 -10 11 -10 5 0 7 5 4 10 -3 6 -8 10 -11 10 -2 0
-4 -4 -4 -10z"/>
<path d="M3096 4148 c3 -5 12 -7 20 -4 8 3 14 1 14 -4 0 -13 -16 -13 -39 -1
-15 9 -18 6 -18 -20 0 -19 3 -25 9 -17 6 10 8 10 8 1 0 -7 7 -10 16 -6 13 5
13 7 2 14 -7 5 -8 9 -2 9 5 0 16 -6 23 -12 10 -11 12 -7 9 17 -2 23 -8 30 -25
31 -12 1 -20 -3 -17 -8z"/>
<path d="M3263 4145 c-3 -9 -3 -18 -1 -21 3 -3 8 4 11 16 6 23 -1 27 -10 5z"/>
<path d="M3290 4130 c-13 -9 -13 -10 0 -10 11 -1 10 -4 -4 -15 -11 -8 -15 -15
-9 -15 17 0 44 30 38 41 -7 11 -6 11 -25 -1z"/>
<path d="M3335 4118 c-14 -14 -15 -19 -5 -16 8 3 21 -2 28 -11 8 -9 11 -10 7
-3 -4 7 0 12 10 12 9 0 13 -4 10 -10 -7 -12 2 -12 30 0 19 8 19 9 -2 9 -12 1
-24 5 -28 11 -3 5 -12 7 -20 3 -11 -4 -13 -1 -9 11 8 21 4 20 -21 -6z"/>
<path d="M3220 4100 c0 -5 7 -7 15 -4 8 4 15 8 15 10 0 2 -7 4 -15 4 -8 0 -15
-4 -15 -10z"/>
<path d="M2991 4083 c12 -15 12 -16 -3 -10 -10 3 -18 2 -18 -3 0 -6 5 -10 11
-10 5 0 7 -4 4 -10 -3 -5 -3 -15 1 -22 5 -8 10 -6 15 8 12 32 10 51 -7 58 -15
6 -15 4 -3 -11z"/>
<path d="M3305 4080 c3 -5 11 -10 16 -10 6 0 7 5 4 10 -3 6 -11 10 -16 10 -6
0 -7 -4 -4 -10z"/>
<path d="M3475 4079 c-4 -6 -5 -12 -2 -15 2 -3 7 2 10 11 7 17 1 20 -8 4z"/>
<path d="M2877 4072 c-3 -4 3 -18 14 -31 10 -13 19 -19 19 -13 0 5 -7 15 -15
22 -8 7 -12 16 -9 21 3 5 3 9 0 9 -3 0 -7 -3 -9 -8z"/>
<path d="M3020 4073 c0 -5 4 -14 9 -21 6 -10 10 -9 14 7 3 14 0 21 -9 21 -8 0
-14 -3 -14 -7z"/>
<path d="M3240 4066 c0 -8 4 -17 8 -20 4 -2 8 4 8 15 0 10 -4 19 -8 19 -4 0
-8 -6 -8 -14z"/>
<path d="M3520 4069 c0 -5 5 -7 10 -4 6 3 10 8 10 11 0 2 -4 4 -10 4 -5 0 -10
-5 -10 -11z"/>
<path d="M3095 4060 c-4 -6 -11 -7 -17 -4 -7 4 -8 2 -4 -5 6 -9 11 -9 22 0 14
11 18 19 10 19 -3 0 -8 -5 -11 -10z"/>
<path d="M3141 4054 c0 -11 3 -14 6 -6 3 7 2 16 -1 19 -3 4 -6 -2 -5 -13z"/>
<path d="M3270 4056 c0 -9 7 -13 19 -11 14 3 19 -2 18 -16 -1 -12 -7 -17 -15
-14 -7 2 -10 0 -7 -5 4 -6 12 -10 18 -9 7 1 19 1 27 0 13 -1 13 -2 0 -11 -13
-8 -13 -10 2 -10 28 0 31 19 4 30 -16 6 -24 15 -20 24 3 8 -3 19 -15 25 -26
14 -31 14 -31 -3z"/>
<path d="M3363 4055 c0 -6 9 -11 19 -11 10 0 18 4 18 9 0 4 6 5 13 1 6 -4 9
-3 4 1 -11 12 -54 12 -54 0z"/>
<path d="M3440 4054 c0 -8 5 -12 10 -9 6 4 8 11 5 16 -9 14 -15 11 -15 -7z"/>
<path d="M3193 4045 c0 -8 4 -12 9 -9 5 3 6 10 3 15 -9 13 -12 11 -12 -6z"/>
<path d="M3486 4052 c-3 -5 -7 -21 -10 -36 -3 -15 -10 -33 -15 -40 -7 -9 -4
-12 14 -12 26 0 46 33 28 45 -6 3 -9 16 -8 29 2 23 -1 27 -9 14z"/>
<path d="M2949 4045 c-1 -3 -2 -11 -3 -17 0 -7 -18 -14 -40 -16 -25 -2 -36 0
-31 7 3 6 -1 11 -9 11 -13 0 -14 -3 -4 -19 6 -10 18 -17 26 -14 12 5 12 2 0
-18 -7 -13 -17 -27 -23 -31 -6 -4 -2 -8 9 -8 15 0 16 -3 6 -15 -7 -8 -9 -15
-4 -15 5 -1 -4 -8 -19 -16 -15 -8 -38 -13 -50 -10 -12 3 -16 3 -9 0 6 -3 10
-9 8 -13 -3 -3 7 -6 21 -5 13 0 28 6 33 14 11 17 30 4 25 -18 -2 -11 6 -24 18
-32 21 -13 21 -12 4 13 -16 25 -16 27 1 36 15 9 14 10 -7 11 -24 0 -24 0 -5
15 19 15 19 15 -1 9 -20 -6 -20 -5 -1 10 11 9 14 16 8 16 -17 0 -15 29 3 46
12 12 15 12 15 2 0 -10 2 -10 9 1 5 7 14 10 20 7 6 -4 9 -12 5 -17 -3 -5 -2
-8 3 -7 14 4 53 -13 53 -23 0 -6 -4 -8 -9 -4 -5 3 -12 1 -16 -5 -3 -5 1 -10
10 -10 8 0 18 7 21 15 4 8 11 12 18 8 6 -4 5 1 -3 10 -11 14 -11 18 3 23 23 9
20 23 -4 17 -11 -3 -18 -9 -15 -13 6 -10 -16 -18 -33 -13 -10 4 -9 8 4 17 15
12 15 13 0 13 -9 0 -16 -4 -16 -9 0 -5 -4 -7 -9 -4 -4 3 -7 17 -6 31 3 21 -2
36 -6 20z"/>
<path d="M3165 4040 c-3 -5 -1 -10 4 -10 6 0 11 5 11 10 0 6 -2 10 -4 10 -3 0
-8 -4 -11 -10z"/>
<path d="M3336 4034 c-3 -8 -2 -13 2 -10 11 7 38 -17 37 -34 -1 -8 6 -23 14
-33 14 -16 13 -17 -5 -11 -10 4 -26 12 -34 18 -13 10 -13 9 -1 -6 7 -10 21
-18 30 -18 12 0 13 -2 3 -9 -11 -7 -10 -9 3 -14 9 -4 13 -3 10 2 -3 5 5 17 17
25 12 9 17 16 11 16 -12 0 -26 36 -24 60 2 12 0 13 -7 1 -8 -11 -13 -10 -30 7
-17 17 -21 18 -26 6z m62 -59 c-3 -3 -9 2 -12 12 -6 14 -5 15 5 6 7 -7 10 -15
7 -18z"/>
<path d="M3590 4037 c-28 -22 -22 -48 6 -29 8 5 17 44 10 42 -1 0 -8 -6 -16
-13z"/>
<path d="M3057 4033 c-13 -12 15 -43 38 -43 14 0 25 -5 25 -11 0 -8 4 -8 13 0
10 8 17 7 26 -2 10 -9 11 -8 6 6 -4 9 -11 17 -16 17 -5 0 -9 6 -9 13 0 8 -7
14 -15 14 -13 0 -13 -3 2 -19 9 -10 11 -18 6 -18 -6 0 -16 7 -23 15 -10 12
-16 13 -28 3 -13 -11 -15 -10 -9 4 6 18 -5 33 -16 21z"/>
<path d="M3419 4038 c-10 -33 1 -52 16 -28 4 6 11 7 17 4 7 -4 8 -2 4 4 -4 6
-14 8 -23 5 -11 -4 -14 -3 -9 5 4 7 5 12 2 12 -3 0 -6 -1 -7 -2z"/>
<path d="M2756 4018 c3 -4 11 -5 19 -1 21 7 19 12 -4 10 -11 0 -18 -5 -15 -9z"/>
<path d="M3195 4019 c-18 -7 -18 -8 5 -8 19 -1 21 -4 11 -10 -8 -5 -21 -7 -30
-4 -14 4 -14 3 -1 -5 8 -6 17 -9 21 -6 4 2 10 -4 12 -13 4 -14 5 -13 6 4 1 15
9 25 27 29 19 5 22 9 13 15 -8 5 -17 3 -21 -4 -6 -9 -10 -9 -15 -1 -5 7 -16 8
-28 3z"/>
<path d="M3510 4023 c0 -1 9 -7 20 -13 15 -8 20 -8 20 3 0 7 -9 13 -20 13 -11
0 -20 -1 -20 -3z"/>
<path d="M3655 4020 c-4 -6 -11 -8 -16 -5 -5 3 -6 -2 -2 -11 4 -12 3 -15 -6
-10 -7 5 -10 2 -9 -6 2 -8 -4 -12 -14 -10 -10 2 -18 -2 -18 -8 0 -5 9 -10 20
-10 12 0 20 -7 21 -17 0 -14 2 -15 6 -3 3 8 11 19 17 23 7 6 4 7 -6 3 -23 -7
-24 10 -2 18 9 4 14 9 11 13 -4 3 -2 12 4 20 6 7 9 13 6 13 -3 0 -9 -5 -12
-10z"/>
<path d="M2733 4010 c2 -8 0 -23 -5 -32 -5 -10 -6 -18 -4 -18 13 0 24 37 15
51 -9 12 -10 12 -6 -1z"/>
<path d="M2815 3989 c-4 -17 -4 -33 -1 -36 3 -4 6 5 6 18 0 19 2 21 10 9 7
-11 10 -11 10 -2 0 8 5 10 13 6 6 -4 3 2 -7 14 -11 12 -20 22 -22 22 -1 0 -5
-14 -9 -31z"/>
<path d="M3697 3998 c9 -10 19 -15 22 -12 3 4 0 9 -7 11 -6 3 -10 8 -8 12 3 4
-1 8 -9 8 -13 0 -12 -4 2 -19z"/>
<path d="M2763 3976 c0 -11 1 -15 4 -8 4 10 8 10 19 1 12 -10 13 -9 8 4 -9 25
-30 27 -31 3z"/>
<path d="M3251 3988 c-1 -10 6 -18 14 -18 8 0 15 5 15 11 0 5 -4 8 -9 5 -5 -4
-12 0 -14 6 -3 8 -6 6 -6 -4z"/>
<path d="M3430 3990 c-8 -5 -12 -12 -9 -15 4 -3 12 1 19 10 14 17 11 19 -10 5z"/>
<path d="M3551 3983 c3 -19 -2 -25 -14 -14 -10 8 -14 7 -14 -4 0 -8 4 -12 8
-9 4 2 11 -2 16 -9 4 -7 16 -16 26 -20 11 -4 16 -3 12 3 -3 6 -2 10 4 10 5 0
12 -6 14 -12 3 -8 6 -6 6 5 1 13 -5 17 -21 15 -13 -2 -24 2 -24 7 -1 6 3 9 9
7 6 -2 5 4 -3 12 -14 17 -21 20 -19 9z"/>
<path d="M3674 3978 c1 -7 7 -23 14 -34 6 -12 8 -25 4 -29 -4 -5 -2 -6 3 -2
12 6 13 47 1 65 -10 16 -25 15 -22 0z"/>
<path d="M2628 3973 c6 -2 18 -2 25 0 6 3 1 5 -13 5 -14 0 -19 -2 -12 -5z"/>
<path d="M3055 3970 c3 -5 8 -10 11 -10 2 0 4 5 4 10 0 6 -5 10 -11 10 -5 0
-7 -4 -4 -10z"/>
<path d="M3090 3971 c0 -5 5 -13 10 -16 6 -3 10 -2 10 4 0 5 -4 13 -10 16 -5
3 -10 2 -10 -4z"/>
<path d="M3730 3973 c0 -6 7 -13 15 -17 18 -7 20 -32 3 -39 -10 -4 -10 -6 0
-6 7 -1 17 11 22 25 6 14 14 23 19 19 5 -3 12 -1 15 4 7 10 -20 9 -30 -2 -4
-4 -16 0 -26 10 -10 9 -18 11 -18 6z"/>
<path d="M3175 3960 c-3 -5 -2 -10 4 -10 5 0 13 5 16 10 3 6 2 10 -4 10 -5 0
-13 -4 -16 -10z"/>
<path d="M2574 3946 c-4 -9 -4 -20 0 -23 3 -4 6 -1 6 6 0 7 5 9 11 6 7 -5 2
-17 -13 -34 -12 -14 -16 -20 -8 -13 8 6 22 12 31 12 10 0 20 -6 22 -12 3 -7 6
-8 6 -2 1 5 -10 25 -24 44 -20 28 -26 30 -31 16z"/>
<path d="M2648 3953 c7 -3 16 -2 19 1 4 3 -2 6 -13 5 -11 0 -14 -3 -6 -6z"/>
<path d="M2943 3950 c-13 -5 -23 -15 -22 -22 0 -10 2 -10 6 0 7 18 31 15 36
-5 3 -10 4 -6 4 10 -1 15 -2 27 -2 26 0 0 -10 -4 -22 -9z"/>
<path d="M3275 3950 c3 -5 8 -10 11 -10 2 0 4 5 4 10 0 6 -5 10 -11 10 -5 0
-7 -4 -4 -10z"/>
<path d="M2678 3943 c-10 -2 -18 -8 -18 -13 0 -13 21 -24 29 -14 9 13 31 16
31 3 0 -5 5 -7 10 -4 6 3 10 2 10 -3 0 -15 -13 -22 -24 -12 -7 5 -17 5 -26 -1
-12 -8 -11 -9 4 -7 17 3 25 -10 28 -49 1 -7 4 -12 7 -11 19 2 24 -4 11 -12 -9
-6 -10 -10 -3 -10 7 0 17 10 24 21 6 12 7 19 1 15 -5 -3 -13 1 -16 10 -8 20 2
54 15 54 6 0 6 -8 -1 -20 -9 -16 -8 -18 5 -14 26 10 16 31 -25 53 -22 12 -42
20 -43 20 -1 -1 -10 -3 -19 -6z"/>
<path d="M2750 3940 c8 -5 20 -10 25 -10 6 0 3 5 -5 10 -8 5 -19 10 -25 10 -5
0 -3 -5 5 -10z"/>
<path d="M3059 3942 c11 -8 11 -10 0 -14 -8 -3 1 -5 18 -4 31 1 49 16 19 16
-8 0 -23 3 -33 6 -13 4 -15 3 -4 -4z"/>
<path d="M3216 3942 c-3 -6 0 -13 6 -16 9 -3 8 -8 -4 -16 -10 -6 -18 -16 -18
-23 0 -6 10 -2 21 10 16 16 19 25 11 38 -5 11 -12 14 -16 7z"/>
<path d="M3498 3938 c8 -8 8 -15 1 -24 -8 -9 -5 -11 11 -7 20 5 20 7 4 24 -9
11 -20 19 -23 19 -3 0 0 -5 7 -12z"/>
<path d="M3831 3933 c-6 -10 -11 -12 -11 -5 0 6 -5 12 -12 12 -6 0 -4 -7 5
-18 20 -22 22 -33 5 -29 -6 1 -13 -7 -14 -18 -2 -13 -1 -15 2 -3 4 11 13 15
32 13 15 -2 21 -2 15 1 -7 3 -13 17 -13 30 0 17 4 23 12 18 7 -4 8 -3 4 4 -10
16 -13 15 -25 -5z"/>
<path d="M3887 3938 c7 -8 10 -17 7 -21 -3 -3 3 -3 15 0 13 3 21 1 21 -6 0 -7
-4 -10 -9 -6 -5 3 -13 1 -16 -5 -4 -6 -1 -9 7 -8 7 2 12 -3 10 -11 -2 -8 3
-18 10 -22 10 -7 10 -9 1 -9 -7 0 -13 -8 -13 -17 1 -17 2 -17 15 0 9 12 11 27
6 40 -6 15 -3 26 8 35 9 7 11 11 4 8 -6 -4 -13 -1 -15 4 -2 6 -10 12 -18 13
-8 2 -22 7 -30 12 -12 7 -13 6 -3 -7z"/>
<path d="M2546 3927 c3 -10 9 -15 12 -12 3 3 0 11 -7 18 -10 9 -11 8 -5 -6z"/>
<path d="M2799 3928 c14 -19 32 -15 30 5 0 8 -2 8 -6 -1 -4 -10 -8 -10 -21 0
-15 12 -16 11 -3 -4z"/>
<path d="M3149 3936 c-8 -9 -4 -38 7 -47 8 -6 15 -8 15 -3 6 40 4 51 -7 51 -8
0 -14 -1 -15 -1z m21 -27 c0 -5 -4 -9 -8 -9 -5 0 -9 7 -9 15 0 8 4 12 9 9 4
-3 8 -9 8 -15z"/>
<path d="M3255 3930 c-8 -13 3 -30 18 -30 8 0 7 3 -2 9 -7 5 -10 14 -7 20 4 6
5 11 2 11 -3 0 -8 -4 -11 -10z"/>
<path d="M3665 3930 c-3 -5 -1 -10 4 -10 6 0 11 5 11 10 0 6 -2 10 -4 10 -3 0
-8 -4 -11 -10z"/>
<path d="M3010 3919 c-13 -9 -12 -10 3 -5 9 3 17 1 17 -4 0 -5 -8 -14 -17 -19
-13 -8 -14 -10 -4 -11 11 0 9 -4 -5 -14 -18 -14 -18 -15 -1 -21 9 -4 17 -13
17 -21 0 -8 5 -14 10 -14 19 0 10 29 -12 36 -19 6 -19 7 -4 16 9 5 14 13 11
18 -3 5 -1 11 5 15 5 3 10 1 10 -4 0 -6 4 -11 9 -11 5 0 4 11 -2 25 -13 28
-16 29 -37 14z"/>
<path d="M3410 3920 c0 -5 5 -10 11 -10 5 0 7 5 4 10 -3 6 -8 10 -11 10 -2 0
-4 -4 -4 -10z"/>
<path d="M3541 3904 c0 -11 3 -14 6 -6 3 7 2 16 -1 19 -3 4 -6 -2 -5 -13z"/>
<path d="M2437 3903 c-4 -3 -7 -11 -7 -17 0 -6 5 -5 12 2 6 6 9 14 7 17 -3 3
-9 2 -12 -2z"/>
<path d="M3455 3900 c-3 -5 1 -10 9 -10 9 0 15 -5 14 -11 -2 -6 4 -14 12 -16
13 -4 13 -3 0 6 -11 8 -12 11 -2 11 10 0 10 3 -2 15 -17 18 -23 19 -31 5z"/>
<path d="M3785 3899 c-4 -6 -5 -12 -2 -15 2 -3 7 2 10 11 7 17 1 20 -8 4z"/>
<path d="M2956 3891 c-3 -5 3 -11 15 -14 16 -4 18 -3 8 9 -13 16 -16 17 -23 5z"/>
<path d="M3080 3890 c0 -6 7 -10 15 -10 8 0 15 2 15 4 0 2 -7 6 -15 10 -8 3
-15 1 -15 -4z"/>
<path d="M3308 3879 c11 -30 37 -36 46 -12 6 14 5 16 -5 6 -15 -15 -33 -17
-25 -4 3 5 -1 14 -9 21 -13 11 -14 9 -7 -11z"/>
<path d="M3509 3889 c-1 -8 0 -18 1 -24 1 -5 3 -16 4 -23 1 -8 9 -18 17 -23
12 -7 12 -9 0 -9 -8 0 -12 -3 -8 -6 3 -3 11 -3 18 2 9 5 9 10 -2 18 -8 6 -16
25 -17 41 -4 33 -11 46 -13 24z"/>
<path d="M3570 3890 c-18 -12 -2 -12 25 0 13 6 15 9 5 9 -8 0 -22 -4 -30 -9z"/>
<path d="M3620 3889 c0 -9 14 -13 39 -10 8 2 10 -2 5 -11 -12 -19 -14 -39 -2
-32 5 3 7 8 4 11 -7 7 20 33 34 33 6 0 8 5 4 11 -4 7 -10 7 -16 1 -6 -6 -22
-7 -39 -2 -17 5 -29 5 -29 -1z"/>
<path d="M3753 3883 c2 -12 6 -26 10 -29 11 -11 8 19 -3 36 -8 12 -9 10 -7 -7z"/>
<path d="M3955 3891 c-3 -5 -2 -12 3 -15 5 -3 9 1 9 9 0 17 -3 19 -12 6z"/>
<path d="M4009 3883 c-13 -15 -12 -15 9 -4 23 12 28 21 13 21 -5 0 -15 -7 -22
-17z"/>
<path d="M2456 3882 c-4 -7 -1 -15 8 -18 9 -3 13 -11 9 -18 -3 -6 -2 -7 2 -3
12 10 16 39 5 32 -5 -3 -10 0 -12 7 -3 9 -6 9 -12 0z"/>
<path d="M2390 3871 c-8 -6 -18 -7 -22 -5 -4 3 -8 0 -8 -5 0 -6 6 -11 14 -11
22 0 46 11 46 21 0 11 -11 11 -30 0z"/>
<path d="M2685 3870 c3 -5 8 -10 11 -10 2 0 4 5 4 10 0 6 -5 10 -11 10 -5 0
-7 -4 -4 -10z"/>
<path d="M3374 3848 c-8 -16 -19 -26 -24 -23 -6 3 -7 -1 -4 -10 6 -14 8 -14
21 2 13 17 13 16 7 -7 -3 -14 -3 -22 1 -18 5 4 14 3 21 -3 10 -9 15 -7 20 5 3
9 11 16 16 16 6 0 8 -7 4 -15 -3 -8 0 -14 7 -12 7 1 12 -10 11 -30 0 -18 3
-33 8 -33 4 0 8 12 8 26 0 14 4 23 9 19 5 -3 13 0 17 6 4 8 3 9 -4 5 -16 -9
-15 7 0 22 9 9 9 12 -1 12 -11 0 -11 3 0 18 11 14 10 13 -9 -2 -23 -20 -30
-32 -11 -20 7 4 10 2 8 -5 -6 -18 -23 -15 -29 6 -3 10 -13 19 -23 21 -9 2 -16
-1 -15 -7 2 -5 -1 -8 -7 -7 -5 0 -9 7 -9 13 1 7 -3 10 -9 6 -7 -4 -8 0 -4 11
4 10 7 20 7 22 0 2 5 4 11 4 5 0 8 -4 4 -9 -3 -5 -1 -13 5 -16 6 -4 9 -1 8 7
-2 7 3 12 10 11 6 -2 12 1 12 6 0 5 -11 9 -25 9 -18 0 -30 -9 -41 -30z"/>
<path d="M3726 3865 c4 -8 8 -15 10 -15 2 0 4 7 4 15 0 8 -4 15 -10 15 -5 0
-7 -7 -4 -15z"/>
<path d="M2500 3860 c0 -5 5 -10 11 -10 5 0 7 5 4 10 -3 6 -8 10 -11 10 -2 0
-4 -4 -4 -10z"/>
<path d="M2928 3859 c-3 -8 -2 -23 3 -34 l8 -20 0 20 c1 17 3 17 11 5 8 -12
10 -12 10 -1 0 11 3 11 18 0 15 -12 15 -12 5 1 -6 8 -11 19 -11 23 0 5 -4 12
-8 15 -4 4 -4 2 0 -5 3 -6 2 -14 -3 -18 -5 -3 -14 2 -19 11 -7 13 -10 13 -14
3z"/>
<path d="M3058 3863 c7 -3 16 -2 19 1 4 3 -2 6 -13 5 -11 0 -14 -3 -6 -6z"/>
<path d="M3200 3860 c0 -5 5 -10 11 -10 5 0 7 5 4 10 -3 6 -8 10 -11 10 -2 0
-4 -4 -4 -10z"/>
<path d="M3454 3853 c2 -10 6 -17 10 -16 15 3 16 11 2 22 -12 10 -14 9 -12 -6z"/>
<path d="M3828 3857 c-8 -9 -18 -13 -22 -10 -3 4 -6 2 -6 -4 0 -15 11 -22 26
-16 8 3 11 10 7 17 -3 6 2 3 13 -6 16 -14 23 -15 32 -6 7 7 12 16 12 22 0 5
-7 1 -16 -10 -14 -17 -15 -17 -10 -1 3 10 2 16 -3 12 -5 -3 -11 0 -13 6 -3 8
-9 6 -20 -4z"/>
<path d="M2426 3853 c-12 -12 -5 -23 14 -23 11 0 20 4 20 9 0 11 -26 22 -34
14z"/>
<path d="M2590 3849 c0 -6 -6 -9 -13 -6 -8 3 -14 -1 -14 -8 0 -19 31 -11 35 8
2 10 1 17 -2 17 -3 0 -6 -5 -6 -11z"/>
<path d="M2614 3848 c-3 -4 6 -8 20 -8 15 0 24 -5 22 -12 -1 -7 -1 -10 1 -5 3
4 8 5 13 2 4 -3 14 3 21 13 13 15 12 16 -3 3 -15 -11 -19 -11 -24 2 -6 16 -42
19 -50 5z"/>
<path d="M2820 3850 c0 -5 7 -10 16 -10 8 0 12 5 9 10 -3 6 -10 10 -16 10 -5
0 -9 -4 -9 -10z"/>
<path d="M3141 3851 c-7 -5 -21 -6 -31 -4 -10 3 -21 -1 -25 -8 -6 -8 -4 -10 5
-4 10 6 12 3 8 -13 -4 -12 -2 -20 3 -16 5 3 9 11 9 17 0 7 12 14 28 15 21 1
23 0 12 -8 -8 -5 -11 -10 -6 -10 5 0 1 -9 -8 -19 -10 -11 -26 -18 -37 -16 -23
5 -26 -10 -3 -19 10 -4 13 -2 8 7 -5 8 -2 7 9 -2 18 -15 27 -12 31 11 5 30 28
59 42 54 9 -3 12 -2 9 5 -4 6 -13 8 -20 5 -8 -3 -15 -1 -17 4 -2 5 -9 6 -17 1z"/>
<path d="M3893 3834 c-6 -13 -7 -24 -3 -24 9 0 25 39 18 45 -2 2 -8 -7 -15
-21z"/>
<path d="M4040 3845 c0 -9 6 -12 15 -9 8 4 15 7 15 9 0 2 -7 5 -15 9 -9 3 -15
0 -15 -9z"/>
<path d="M4095 3850 c-3 -5 3 -10 14 -10 23 0 23 -1 25 -58 1 -33 -2 -38 -17
-34 -9 2 -20 8 -23 13 -3 5 3 6 13 2 10 -3 15 -3 11 2 -13 14 -72 11 -84 -4
-10 -13 -65 -23 -61 -11 2 6 -3 9 -44 20 -30 9 -31 9 -16 -13 18 -27 102 -34
130 -9 9 8 20 12 24 9 3 -4 1 -7 -5 -7 -7 0 -12 -4 -12 -8 0 -5 60 -8 133 -9
l132 0 3 -367 2 -366 -30 0 -30 0 0 -97 c0 -54 -4 -93 -8 -86 -4 6 -16 11 -27
10 -14 -1 -21 5 -23 21 -3 17 -10 22 -33 22 -26 0 -29 3 -29 30 0 25 -4 30
-25 30 -14 0 -25 5 -25 11 0 5 50 182 110 392 61 210 109 385 107 390 -1 4
-54 -172 -117 -392 l-115 -401 -137 0 -138 0 0 -30 c0 -27 -3 -30 -30 -30
l-30 0 0 -125 0 -125 30 0 c28 0 30 -3 30 -35 l0 -35 170 0 c107 0 170 4 170
10 0 6 7 10 15 10 10 0 15 10 15 31 0 16 4 28 9 24 5 -3 12 -1 16 5 9 14 -29
12 -44 -2 -10 -11 -11 -10 -6 5 6 14 28 21 65 19 6 0 30 26 30 33 -1 27 1 35
10 35 16 0 7 -44 -13 -62 -10 -9 -18 -19 -18 -22 1 -3 -2 -7 -6 -8 -16 -4 -34
-29 -30 -41 4 -9 6 -9 6 1 1 7 5 11 10 7 6 -3 21 7 35 22 19 21 26 24 26 11 0
-9 7 -19 16 -22 8 -3 13 -10 10 -15 -3 -5 3 -11 14 -14 11 -3 18 -1 14 4 -3 5
0 9 5 9 6 0 11 -9 11 -20 0 -19 7 -20 165 -20 l165 0 0 35 c0 33 2 35 35 35
l35 0 0 190 0 190 -35 0 c-34 0 -35 1 -35 40 l0 40 -70 0 c-38 0 -70 2 -70 5
0 3 -43 154 -95 335 -53 182 -94 334 -92 338 3 4 1 16 -4 27 -6 17 -8 17 -8 3
-1 -10 -6 -18 -12 -18 -5 0 -8 -4 -5 -8 2 -4 -5 -8 -17 -9 -12 0 -16 1 -9 4 6
3 12 9 12 14 0 6 -6 7 -16 1 -20 -11 -66 -3 -58 10 3 5 -4 4 -15 -4 -18 -11
-23 -11 -31 2 -9 13 -10 13 -10 0 0 -13 -2 -13 -9 -1 -6 10 -4 19 8 30 9 9 12
13 5 8 -7 -4 -14 -1 -17 7 -8 21 -44 39 -52 26z m76 -103 c-13 -13 -26 -3 -16
12 3 6 11 8 17 5 6 -4 6 -10 -1 -17z m59 3 c0 -5 -5 -10 -11 -10 -5 0 -7 5 -4
10 3 6 8 10 11 10 2 0 4 -4 4 -10z m25 0 c3 -5 1 -10 -4 -10 -6 0 -11 5 -11
10 0 6 2 10 4 10 3 0 8 -4 11 -10z m255 -662 c0 -5 -40 -8 -90 -8 l-90 0 1
313 0 312 89 -305 c49 -168 89 -308 90 -312z m120 -78 c0 -39 1 -40 35 -40
l35 0 0 -165 0 -165 -35 0 c-32 0 -35 -2 -35 -30 l0 -30 -140 0 -140 0 0 30
c0 27 -3 30 -30 30 l-30 0 0 165 0 165 30 0 c28 0 30 2 30 40 l0 40 140 0 140
0 0 -40z m-530 -135 c0 -33 2 -35 35 -35 l35 0 0 -65 0 -65 -130 0 -130 0 0
-35 0 -35 95 0 95 0 0 -30 0 -30 -135 0 -135 0 0 30 c0 28 -3 30 -35 30 l-35
0 0 100 0 100 35 0 c33 0 35 2 35 35 l0 35 135 0 135 0 0 -35z m140 -76 c0 -6
4 -8 8 -5 4 2 8 -3 9 -13 1 -10 -5 -18 -12 -18 -8 0 -11 5 -8 10 4 6 -2 8 -13
5 -14 -3 -20 0 -20 12 0 9 8 17 18 17 10 1 18 -3 18 -8z m20 -59 c0 -5 -2 -10
-4 -10 -3 0 -8 5 -11 10 -3 6 -1 10 4 10 6 0 11 -4 11 -10z m-257 -67 c-13 -2
-33 -2 -45 0 -13 2 -3 4 22 4 25 0 35 -2 23 -4z m54 1 c-3 -3 -12 -4 -19 -1
-8 3 -5 6 6 6 11 1 17 -2 13 -5z m60 0 c-3 -3 -12 -4 -19 -1 -8 3 -5 6 6 6 11
1 17 -2 13 -5z m208 -64 c3 -5 -1 -10 -10 -10 -9 0 -13 5 -10 10 3 6 8 10 10
10 2 0 7 -4 10 -10z m-165 -4 c0 -3 -4 -8 -10 -11 -5 -3 -10 -1 -10 4 0 6 5
11 10 11 6 0 10 -2 10 -4z"/>
<path d="M4430 2805 l0 -165 60 0 60 0 0 165 0 165 -60 0 -60 0 0 -165z m100
74 c0 -69 -1 -71 -22 -65 -13 3 -29 6 -35 6 -9 0 -13 20 -13 65 l0 65 35 0 35
0 0 -71z"/>
<path d="M3910 2810 l0 -30 60 0 60 0 0 30 0 30 -60 0 -60 0 0 -30z m90 0 c0
-5 -13 -10 -30 -10 -16 0 -30 5 -30 10 0 6 14 10 30 10 17 0 30 -4 30 -10z"/>
<path d="M2800 3841 c0 -7 -5 -9 -12 -5 -7 4 -10 4 -6 -1 4 -4 -2 -15 -13 -24
-19 -15 -19 -17 -4 -36 9 -11 14 -15 10 -8 -3 7 3 17 14 22 14 8 20 7 25 -4 3
-9 0 -15 -9 -15 -8 0 -15 -4 -15 -8 0 -4 8 -8 18 -8 12 0 18 8 18 23 0 21 -8
27 -28 24 -12 -2 -9 14 4 27 6 6 9 15 5 19 -4 3 -7 1 -7 -6z"/>
<path d="M2861 3838 c-1 -10 -5 -18 -11 -18 -5 0 -10 -5 -10 -12 0 -8 6 -7 16
4 9 9 14 22 11 30 -4 9 -6 7 -6 -4z"/>
<path d="M3576 3842 c-3 -5 1 -9 9 -9 8 0 12 4 9 9 -3 4 -7 8 -9 8 -2 0 -6 -4
-9 -8z"/>
<path d="M3680 3846 c0 -2 11 -6 25 -8 13 -3 22 -1 19 3 -5 9 -44 13 -44 5z"/>
<path d="M4188 3823 c3 -16 7 -22 10 -15 2 6 9 9 15 5 7 -3 3 3 -7 15 -24 28
-24 28 -18 -5z"/>
<path d="M2310 3825 c0 -8 4 -15 10 -15 5 0 7 7 4 15 -4 8 -8 15 -10 15 -2 0
-4 -7 -4 -15z"/>
<path d="M2351 3823 c6 -7 17 -13 23 -12 7 0 6 2 -2 6 -6 2 -10 8 -8 12 3 4
-1 8 -9 8 -11 0 -12 -4 -4 -14z"/>
<path d="M2487 3833 c-3 -5 -2 -15 2 -22 7 -10 10 -10 16 -1 4 6 3 16 -3 22
-5 5 -12 6 -15 1z"/>
<path d="M3057 3833 c-11 -11 -8 -20 7 -20 8 0 12 6 9 14 -6 15 -7 15 -16 6z"/>
<path d="M3283 3830 c-13 -5 -23 -12 -23 -15 0 -9 16 -5 36 10 22 16 19 18
-13 5z"/>
<path d="M3740 3825 c0 -13 4 -14 20 -5 11 6 20 13 20 15 0 3 -9 5 -20 5 -11
0 -20 -7 -20 -15z"/>
<path d="M2530 3821 c0 -5 5 -13 10 -16 6 -3 10 -2 10 4 0 5 -4 13 -10 16 -5
3 -10 2 -10 -4z"/>
<path d="M2610 3820 c0 -5 7 -7 15 -4 8 4 15 8 15 10 0 2 -7 4 -15 4 -8 0 -15
-4 -15 -10z"/>
<path d="M3680 3821 c-8 -6 -17 -8 -21 -5 -5 2 -6 -5 -4 -17 3 -15 -2 -23 -15
-26 -20 -5 -26 -18 -12 -26 4 -2 1 -2 -5 -1 -7 2 -13 -1 -13 -6 0 -6 -4 -10
-10 -10 -5 0 -7 6 -5 13 3 6 -6 17 -19 23 -20 9 -23 9 -19 -3 3 -7 2 -13 -3
-11 -17 5 -74 -12 -74 -21 0 -5 13 -9 30 -9 16 1 28 4 25 7 -2 4 5 7 15 7 10
0 17 -3 14 -7 -7 -13 111 -4 124 9 17 15 29 15 38 0 5 -8 2 -9 -9 -5 -9 3 -19
2 -22 -3 -8 -13 68 -8 76 4 4 5 17 10 30 11 13 1 28 3 33 4 4 0 6 7 3 15 -3 8
-2 17 4 20 5 2 4 3 -3 2 -7 -2 -12 -9 -10 -16 3 -11 0 -11 -12 -1 -13 11 -17
10 -22 -3 -4 -10 -13 -14 -24 -11 -10 3 -22 1 -25 -6 -4 -6 -10 -7 -14 -3 -9
13 -54 37 -47 25 8 -12 -10 -24 -24 -16 -11 7 6 42 30 62 18 14 11 17 -10 4z"/>
<path d="M4011 3813 c-9 -16 -12 -16 -21 -3 -10 15 -11 12 -13 -27 -1 -10 5
-17 13 -15 7 2 16 -2 20 -9 6 -8 9 -8 14 0 4 6 2 11 -4 11 -6 0 -8 4 -5 10 8
13 15 50 10 50 -2 0 -9 -8 -14 -17z m-6 -31 c-3 -3 -11 0 -18 7 -9 10 -8 11 6
5 10 -3 15 -9 12 -12z"/>
<path d="M2385 3800 c-3 -11 -11 -20 -16 -20 -5 0 -9 -8 -9 -17 0 -15 -2 -16
-10 -3 -14 21 -13 -5 0 -31 8 -15 7 -19 -5 -19 -8 0 -15 6 -15 14 0 8 -6 17
-12 19 -10 4 -10 6 0 6 10 1 10 4 -2 16 -20 20 -21 19 -23 -13 -2 -36 9 -47
48 -50 26 -2 30 0 25 15 -5 16 -4 16 6 3 16 -18 55 -22 55 -5 0 8 -10 12 -24
10 -33 -3 -46 16 -28 42 10 14 22 19 35 16 12 -3 20 0 20 6 0 7 -5 9 -12 5 -8
-5 -9 -2 -5 9 4 11 1 17 -8 17 -7 0 -17 -9 -20 -20z"/>
<path d="M2464 3804 c3 -18 32 -38 39 -27 3 5 -5 16 -18 25 -20 16 -23 16 -21
2z"/>
<path d="M2695 3810 c4 -6 11 -8 16 -5 14 9 11 15 -7 15 -8 0 -12 -5 -9 -10z"/>
<path d="M3226 3799 c-10 -10 -23 -16 -29 -12 -6 3 -7 1 -3 -5 7 -11 -6 -17
-27 -13 -5 1 -6 -3 -2 -9 4 -6 -6 -8 -24 -6 -17 2 -31 -1 -31 -7 0 -5 -7 -4
-15 3 -13 11 -14 10 -9 -4 3 -9 1 -16 -5 -16 -23 0 -10 -16 14 -18 15 -1 28 4
31 13 4 8 15 15 26 15 10 0 16 -5 13 -10 -4 -6 -11 -8 -16 -5 -5 4 -9 1 -9 -4
0 -13 47 -15 54 -2 3 5 15 7 26 4 24 -6 28 22 5 31 -15 5 -22 -9 -7 -17 4 -2
1 -2 -7 0 -8 2 -18 -1 -21 -7 -5 -8 -9 -7 -13 4 -3 8 -1 18 5 22 7 5 8 2 4 -7
-4 -8 2 -3 13 11 18 21 22 23 31 10 10 -13 11 -13 8 0 -2 8 2 16 7 18 6 1 10
-2 10 -7 0 -5 3 -12 7 -16 9 -10 4 17 -7 36 -9 15 -12 14 -29 -2z"/>
<path d="M3704 3804 c-18 -14 -18 -15 4 -4 12 6 22 13 22 15 0 8 -5 6 -26 -11z"/>
<path d="M3786 3803 c-6 -14 -5 -15 5 -6 7 7 10 15 7 18 -3 3 -9 -2 -12 -12z"/>
<path d="M3830 3810 c0 -5 5 -10 11 -10 5 0 7 5 4 10 -3 6 -8 10 -11 10 -2 0
-4 -4 -4 -10z"/>
<path d="M4047 3814 c-11 -11 3 -24 26 -23 15 0 17 2 7 6 -8 3 -18 10 -21 15
-3 4 -8 5 -12 2z"/>
<path d="M2219 3802 c-5 -28 -3 -52 5 -51 5 0 12 -4 15 -10 5 -8 13 -6 27 4
18 13 17 14 -13 10 -36 -4 -41 5 -18 28 13 13 13 16 0 21 -8 3 -16 2 -16 -2z"/>
<path d="M2330 3800 c-13 -8 -12 -10 3 -10 9 0 17 5 17 10 0 12 -1 12 -20 0z"/>
<path d="M2960 3802 c0 -4 4 -12 9 -17 6 -6 4 -17 -5 -29 -12 -17 -14 -18 -14
-3 0 9 -5 17 -11 17 -6 0 -3 -12 6 -28 17 -28 54 -37 72 -18 5 5 1 7 -8 3 -13
-4 -16 -1 -12 16 5 22 5 22 -10 2 -8 -11 -18 -17 -21 -14 -4 3 3 18 15 33 13
17 16 26 7 24 -7 -2 -12 3 -10 10 1 6 -2 12 -8 12 -5 0 -10 -4 -10 -8z"/>
<path d="M3565 3800 c-8 -13 9 -20 24 -11 10 6 9 10 -3 14 -8 3 -18 2 -21 -3z"/>
<path d="M3622 3801 c-11 -7 -11 -9 0 -14 9 -3 15 1 15 9 0 8 -1 14 -1 14 -1
0 -7 -4 -14 -9z"/>
<path d="M3760 3810 c-8 -26 -7 -41 2 -32 6 6 8 16 5 24 -3 7 -6 11 -7 8z"/>
<path d="M3926 3793 c10 -7 22 -13 26 -13 5 0 3 6 -4 13 -7 8 -19 14 -26 14
-11 0 -10 -4 4 -14z"/>
<path d="M4105 3800 c3 -5 8 -10 11 -10 2 0 4 5 4 10 0 6 -5 10 -11 10 -5 0
-7 -4 -4 -10z"/>
<path d="M2440 3791 c0 -6 4 -13 10 -16 6 -3 7 1 4 9 -7 18 -14 21 -14 7z"/>
<path d="M2523 3784 c0 -8 2 -12 5 -10 8 9 30 -19 25 -31 -6 -15 23 -18 32 -3
4 6 -1 7 -12 3 -16 -6 -16 -4 2 18 11 13 16 21 11 17 -5 -4 -21 -1 -36 7 -23
12 -27 12 -27 -1z"/>
<path d="M2600 3783 c0 -15 2 -16 10 -3 6 10 10 11 10 3 0 -7 8 -13 17 -13 15
0 14 2 -3 15 -25 19 -34 19 -34 -2z"/>
<path d="M3016 3783 c-3 -7 0 -15 6 -19 7 -5 8 -2 3 6 -5 9 -2 10 14 5 14 -4
21 -2 21 7 0 17 -38 18 -44 1z"/>
<path d="M3860 3791 c0 -6 4 -13 10 -16 6 -3 7 1 4 9 -7 18 -14 21 -14 7z"/>
<path d="M2151 3781 c-10 -6 -9 -10 5 -15 20 -8 25 -4 16 11 -4 7 -13 9 -21 4z"/>
<path d="M2694 3770 c0 -10 6 -16 13 -13 7 3 13 9 13 13 0 4 -6 10 -13 13 -7
3 -13 -3 -13 -13z"/>
<path d="M2881 3781 c-1 -7 -7 -11 -16 -7 -17 6 -20 -5 -5 -20 6 -6 6 -15 0
-24 -8 -12 -10 -12 -10 -1 0 11 -3 11 -17 0 -11 -10 -14 -10 -9 -1 4 6 4 12
-1 13 -4 0 -18 2 -31 5 -16 3 -21 0 -16 -8 5 -8 2 -9 -10 -5 -10 4 -20 7 -22
7 -3 0 -3 4 0 9 7 11 -13 9 -31 -2 -7 -5 -18 -5 -23 -2 -6 4 -17 2 -24 -4 -7
-6 -38 -13 -68 -15 -30 -1 -60 -6 -65 -9 -6 -4 -8 3 -5 19 l5 25 -28 -25 c-16
-15 -25 -29 -21 -33 4 -4 11 -1 15 6 6 9 11 10 15 2 4 -6 25 -8 54 -5 26 3 61
7 77 8 17 2 41 7 55 13 18 8 29 8 39 0 7 -6 40 -13 72 -14 50 -2 59 0 59 15 1
16 1 16 11 0 6 -11 22 -18 41 -18 27 0 29 2 17 16 -8 10 -15 12 -17 5 -2 -6
-11 -11 -20 -11 -14 0 -14 2 -3 9 11 7 9 10 -8 16 -26 8 -18 25 9 20 11 -2 20
1 20 7 0 5 -6 8 -14 5 -8 -3 -17 -1 -20 6 -3 8 -5 8 -5 -2z m-71 -51 c0 -5 -5
-10 -11 -10 -5 0 -7 5 -4 10 3 6 8 10 11 10 2 0 4 -4 4 -10z"/>
<path d="M3345 3779 c-4 -6 -5 -12 -2 -15 2 -3 7 2 10 11 7 17 1 20 -8 4z"/>
<path d="M2665 3770 c-3 -5 -1 -10 4 -10 6 0 11 5 11 10 0 6 -2 10 -4 10 -3 0
-8 -4 -11 -10z"/>
<path d="M3315 3770 c3 -5 8 -10 11 -10 2 0 4 5 4 10 0 6 -5 10 -11 10 -5 0
-7 -4 -4 -10z"/>
<path d="M4365 3770 c-3 -6 1 -7 9 -4 18 7 21 14 7 14 -6 0 -13 -4 -16 -10z"/>
<path d="M2095 3760 c-17 -7 -17 -9 -2 -9 9 -1 17 -6 17 -11 0 -6 -7 -10 -16
-8 -22 4 -26 -5 -74 -181 -23 -85 -44 -162 -47 -170 -4 -14 -3 -14 5 -1 5 8
29 85 53 170 l44 155 5 -170 6 -170 2 155 3 155 108 -370 107 -370 -43 -3
c-40 -3 -43 -5 -43 -33 0 -27 -3 -29 -35 -29 -31 0 -35 -3 -35 -25 0 -21 -5
-25 -30 -25 l-30 0 -2 168 -2 167 -3 -142 -4 -143 -24 0 c-21 0 -25 5 -25 30
l0 30 -89 0 -89 0 50 171 c27 94 47 173 45 175 -2 3 -26 -73 -53 -168 l-50
-173 -77 -3 -77 -3 0 -29 c0 -27 -3 -30 -30 -30 l-30 0 0 -125 0 -125 30 0
c28 0 30 -3 30 -35 l0 -35 83 -2 c45 0 96 0 112 1 23 1 27 0 15 -8 -13 -10
-13 -11 0 -12 8 -1 25 -3 37 -4 12 -1 24 3 27 10 6 16 45 12 57 -6 7 -11 9
-11 9 -1 0 7 5 10 11 7 6 -4 5 2 -3 14 -13 21 -2 56 16 51 5 -1 13 4 17 12 7
10 9 9 9 -4 0 -10 -9 -22 -20 -28 -25 -14 -26 -30 -1 -23 22 6 46 55 37 78 -4
12 -2 13 13 6 10 -6 21 -7 25 -4 14 15 3 20 -39 18 -25 0 -45 3 -45 7 0 9 3 9
42 12 14 0 30 5 35 9 4 5 4 8 -2 7 -19 -4 -35 0 -35 9 0 20 43 1 46 -20 1 -5
3 -10 4 -11 1 -2 4 -15 6 -30 3 -30 -5 -35 -25 -15 -7 6 -11 8 -10 2 2 -5 -2
-20 -9 -33 -13 -23 -9 -42 9 -42 6 0 8 10 4 23 -5 19 -3 18 9 -5 12 -20 21
-25 38 -21 19 4 20 3 8 -6 -8 -6 -10 -11 -4 -11 5 0 15 5 22 12 9 9 12 9 12 0
0 -7 8 -12 18 -12 14 0 15 2 2 10 -12 7 -9 9 10 8 14 -1 49 -1 78 0 l52 2 0
35 0 35 60 0 60 0 0 -35 0 -35 100 0 100 0 0 -30 0 -30 100 0 100 0 0 65 0 65
100 0 100 0 0 30 c0 28 3 30 35 30 l35 0 0 95 0 95 -35 0 c-32 0 -35 2 -35 30
l0 30 -200 0 -200 0 0 -30 c0 -27 -3 -30 -30 -30 -27 0 -30 3 -30 30 l0 29
-152 3 -152 3 -111 386 c-111 381 -111 386 -87 381 17 -3 23 -1 18 7 -4 6 -3
11 3 11 5 0 11 -5 13 -12 2 -6 12 -9 21 -5 18 7 23 27 7 27 -5 0 -10 -6 -10
-12 0 -9 -4 -8 -10 2 -8 12 -13 13 -29 3 -18 -12 -20 -10 -16 17 2 17 3 30 2
29 -1 0 -11 -4 -22 -9z m-95 -885 c0 -32 2 -35 30 -35 l30 0 0 -65 0 -65 -130
0 -130 0 0 -35 0 -35 100 0 100 0 0 -30 0 -30 -140 0 -140 0 0 30 c0 28 -3 30
-35 30 l-35 0 0 100 0 100 35 0 c33 0 35 2 35 35 l0 35 140 0 140 0 0 -35z
m390 0 c0 -31 3 -35 25 -35 22 0 25 4 25 35 l0 35 75 0 75 0 0 -35 c0 -33 2
-35 35 -35 l35 0 0 -130 0 -130 -75 0 -75 0 0 100 0 100 -25 0 c-24 0 -25 -2
-25 -70 l0 -70 -40 0 -40 0 0 70 c0 68 -1 70 -25 70 l-25 0 0 -100 0 -100 -75
0 -75 0 0 130 0 130 35 0 c33 0 35 2 35 35 l0 35 70 0 70 0 0 -35z m660 0 c0
-33 2 -35 35 -35 l35 0 0 -65 0 -65 -35 0 c-33 0 -35 -2 -35 -35 l0 -35 -100
0 -100 0 0 -65 0 -65 -70 0 -70 0 0 200 0 200 170 0 170 0 0 -35z m-900 -80
c0 -9 -6 -12 -15 -9 -8 4 -15 10 -15 15 0 5 7 9 15 9 8 0 15 -7 15 -15z m-14
-25 c8 0 14 -7 14 -15 0 -8 -7 -15 -16 -15 -8 0 -13 4 -9 9 3 5 1 12 -4 15
-16 10 -24 -14 -11 -29 10 -12 10 -15 -2 -15 -9 0 -14 13 -15 40 -1 36 0 38
13 25 9 -8 22 -15 30 -15z m-263 -97 c-7 -2 -19 -2 -25 0 -7 3 -2 5 12 5 14 0
19 -2 13 -5z m70 0 c-7 -2 -19 -2 -25 0 -7 3 -2 5 12 5 14 0 19 -2 13 -5z m60
0 c-7 -2 -19 -2 -25 0 -7 3 -2 5 12 5 14 0 19 -2 13 -5z m147 -94 c0 -11 -4
-17 -10 -14 -5 3 -10 13 -10 21 0 8 5 14 10 14 6 0 10 -9 10 -21z"/>
<path d="M1800 2810 l0 -30 60 0 60 0 0 30 0 30 -60 0 -60 0 0 -30z m75 0
c-28 -12 -45 -12 -45 0 0 6 15 10 33 9 27 0 29 -2 12 -9z"/>
<path d="M2850 2775 l0 -65 60 0 60 0 0 65 0 65 -60 0 -60 0 0 -65z m100 5 c0
-39 -1 -40 -35 -40 -34 0 -35 1 -35 40 0 39 1 40 35 40 34 0 35 -1 35 -40z"/>
<path d="M3857 3750 c3 -11 14 -17 29 -17 31 0 26 19 -8 28 -21 5 -25 4 -21
-11z"/>
<path d="M2190 3756 c0 -25 22 -55 40 -53 11 1 20 5 20 10 0 5 7 4 15 -3 9 -7
18 -10 22 -6 9 9 -4 19 -30 22 -12 1 -25 3 -29 3 -4 1 -14 8 -22 17 -9 8 -16
13 -16 10z"/>
<path d="M2495 3750 c3 -5 8 -10 11 -10 2 0 4 5 4 10 0 6 -5 10 -11 10 -5 0
-7 -4 -4 -10z"/>
<path d="M3303 3746 c4 -9 -2 -11 -19 -8 -13 2 -24 0 -24 -5 0 -5 17 -10 38
-11 42 -2 56 22 20 32 -13 3 -18 0 -15 -8z"/>
<path d="M3400 3751 c-19 -3 -36 -11 -37 -18 -2 -11 33 -10 45 2 3 2 10 1 16
-5 8 -6 12 -3 13 11 1 10 1 18 0 18 -1 -1 -18 -5 -37 -8z"/>
<path d="M4340 3746 c0 -6 13 -11 29 -11 18 -1 27 4 24 11 -5 15 -53 15 -53 0z"/>
<path d="M2440 3730 c6 -11 16 -20 22 -20 6 0 3 9 -7 20 -10 11 -20 20 -22 20
-2 0 1 -9 7 -20z"/>
<path d="M3018 3743 c7 -3 16 -2 19 1 4 3 -2 6 -13 5 -11 0 -14 -3 -6 -6z"/>
<path d="M3042 3731 c-11 -7 -11 -9 0 -14 9 -3 15 1 15 9 0 8 -1 14 -1 14 -1
0 -7 -4 -14 -9z"/>
<path d="M2005 3720 c-4 -6 1 -7 11 -3 12 4 15 3 10 -5 -5 -8 -2 -10 8 -6 9 3
16 10 16 15 0 12 -37 11 -45 -1z"/>
<path d="M2698 3713 c7 -3 16 -2 19 1 4 3 -2 6 -13 5 -11 0 -14 -3 -6 -6z"/>
<path d="M2082 3310 c0 -19 2 -27 5 -17 2 9 2 25 0 35 -3 9 -5 1 -5 -18z"/>
<path d="M1100 3015 l0 -65 65 0 65 0 0 -200 0 -200 105 0 105 0 0 200 0 200
65 0 65 0 0 65 0 65 -235 0 -235 0 0 -65z m440 -5 l0 -40 -70 0 -70 0 0 -195
0 -195 -70 0 -70 0 0 195 0 195 -65 0 -65 0 0 40 0 40 205 0 205 0 0 -40z"/>
<path d="M3270 3015 l0 -65 35 0 35 0 0 -140 0 -140 -35 0 -35 0 0 -60 0 -60
170 0 170 0 0 60 0 60 -35 0 -35 0 0 205 0 205 -135 0 -135 0 0 -65z m240
-170 l0 -205 35 0 c32 0 35 -2 35 -30 l0 -30 -140 0 -140 0 0 30 c0 28 3 30
35 30 l35 0 0 165 0 165 -35 0 c-34 0 -35 1 -35 40 l0 40 105 0 105 0 0 -205z"/>
<path d="M4860 3040 c0 -39 -1 -40 -35 -40 l-35 0 0 -90 0 -90 35 0 c33 0 35
-2 35 -35 l0 -35 95 0 95 0 0 -40 c0 -38 -2 -40 -30 -40 -28 0 -30 3 -30 35
l0 35 -100 0 -100 0 0 -60 0 -60 35 0 c33 0 35 -2 35 -35 l0 -35 165 0 165 0
0 35 c0 33 2 35 35 35 l35 0 0 90 0 90 -35 0 c-33 0 -35 2 -35 35 l0 35 -100
0 -100 0 0 40 c0 38 2 40 30 40 28 0 30 -3 30 -35 l0 -35 105 0 105 0 0 60 0
60 -35 0 c-34 0 -35 1 -35 40 l0 40 -165 0 -165 0 0 -40z m300 -30 c0 -38 2
-40 30 -40 27 0 30 -3 30 -30 l0 -30 -70 0 -70 0 0 30 0 30 -60 0 -60 0 0 -65
0 -65 100 0 100 0 0 -30 c0 -27 3 -30 30 -30 l30 0 0 -70 0 -70 -30 0 c-27 0
-30 -3 -30 -30 l0 -30 -140 0 -140 0 0 30 c0 27 -3 30 -30 30 -28 0 -30 3 -30
35 l0 35 70 0 70 0 0 -35 0 -35 60 0 60 0 0 70 0 70 -100 0 -100 0 0 30 c0 27
-3 30 -30 30 l-30 0 0 65 0 65 30 0 c28 0 30 2 30 40 l0 40 140 0 140 0 0 -40z"/>
<path d="M4254 2594 c5 -13 3 -14 -6 -6 -9 7 -18 7 -31 -3 -16 -11 -16 -13 -2
-19 10 -4 14 -2 9 5 -4 7 0 9 13 5 26 -8 52 19 27 28 -12 5 -15 2 -10 -10z"/>
<path d="M2060 2540 c0 -5 17 -10 38 -9 30 0 33 2 17 9 -28 12 -55 12 -55 0z"/>
<path d="M1820 1613 c-23 -9 -41 -31 -31 -37 5 -3 12 1 15 10 3 8 11 12 16 9
8 -5 7 -12 -2 -23 -10 -14 -10 -15 2 -5 7 7 14 22 15 33 1 11 1 20 1 19 -1 0
-8 -3 -16 -6z"/>
<path d="M1745 1550 c3 -5 8 -10 11 -10 2 0 4 5 4 10 0 6 -5 10 -11 10 -5 0
-7 -4 -4 -10z"/>
<path d="M1823 1543 c-20 -7 -15 -19 7 -19 11 0 20 4 20 8 0 10 -13 16 -27 11z"/>
<path d="M1746 1515 c-3 -8 -1 -15 4 -15 6 0 10 7 10 15 0 8 -2 15 -4 15 -2 0
-6 -7 -10 -15z"/>
<path d="M1789 1509 c22 -9 23 -11 7 -27 -9 -10 -13 -22 -9 -25 3 -4 -1 -7
-10 -7 -9 0 -18 -4 -21 -9 -9 -13 27 -8 39 6 12 14 37 -1 48 -29 4 -11 13 -16
24 -12 16 5 16 4 -1 -10 -11 -9 -15 -16 -9 -16 7 0 15 5 18 10 4 6 11 7 17 4
6 -4 1 7 -12 24 -12 17 -33 33 -46 36 -23 6 -35 36 -14 36 6 0 10 5 10 11 0 5
-4 8 -9 4 -5 -3 -12 -1 -16 5 -3 5 -14 10 -23 9 -12 0 -10 -3 7 -10z"/>
<path d="M1710 1495 c0 -8 2 -15 4 -15 2 0 6 7 10 15 3 8 1 15 -4 15 -6 0 -10
-7 -10 -15z"/>
<path d="M1753 1493 c-17 -6 -16 -20 1 -26 11 -4 13 -1 9 10 -4 11 -2 14 5 9
7 -4 12 -2 12 3 0 12 -7 13 -27 4z"/>
<path d="M1837 1469 c7 -7 15 -10 18 -7 3 3 -2 9 -12 12 -14 6 -15 5 -6 -5z"/>
<path d="M1678 1463 c9 -4 10 -8 2 -18 -8 -9 -8 -15 0 -20 16 -10 30 4 23 22
-5 12 -3 14 8 8 8 -4 11 -4 6 0 -4 5 -18 10 -30 11 -12 2 -16 0 -9 -3z"/>
<path d="M1716 1422 c-3 -5 1 -9 9 -9 8 0 12 4 9 9 -3 4 -7 8 -9 8 -2 0 -6 -4
-9 -8z"/>
<path d="M1683 1389 c-2 -23 3 -25 10 -4 4 8 3 16 -1 19 -4 3 -9 -4 -9 -15z"/>
<path d="M1626 1392 c-3 -5 1 -9 9 -9 8 0 12 4 9 9 -3 4 -7 8 -9 8 -2 0 -6 -4
-9 -8z"/>
<path d="M1603 1358 c-2 -25 16 -44 92 -95 33 -23 71 -50 84 -62 22 -20 35
-25 53 -22 4 0 5 -5 3 -12 -6 -16 46 -40 59 -27 6 6 3 12 -7 16 -9 3 -17 10
-17 16 0 5 4 7 9 3 5 -3 13 0 17 7 4 7 4 10 -1 6 -16 -15 -44 11 -39 37 2 14
0 25 -6 25 -7 0 -9 -12 -6 -30 5 -35 -7 -39 -27 -10 -8 11 -17 17 -21 13 -4
-4 -4 1 0 10 4 10 13 16 20 13 8 -3 14 -1 14 4 0 6 -5 10 -11 10 -5 0 -7 5 -4
10 4 6 1 9 -7 8 -7 -2 -12 3 -10 10 1 8 -2 11 -8 7 -8 -5 -8 -11 0 -20 13 -16
4 -39 -11 -29 -5 3 -7 9 -4 14 3 5 1 12 -5 15 -6 4 -10 3 -9 -2 4 -24 -3 -23
-26 1 -14 15 -29 25 -33 22 -4 -2 -18 3 -31 13 -17 13 -19 18 -7 18 9 0 16 -4
16 -9 0 -5 5 -6 11 -3 15 10 6 16 -33 22 -18 2 -37 9 -43 14 -7 7 -4 8 6 4 10
-4 20 -1 25 6 4 8 3 10 -5 5 -6 -4 -17 -3 -24 3 -10 7 -13 5 -14 -11z"/>
<path d="M1720 1369 c-12 -8 -9 -10 13 -6 33 5 35 0 5 -13 -18 -7 -19 -9 -5
-9 9 -1 17 -6 17 -12 0 -5 -4 -7 -10 -4 -5 3 -10 2 -10 -4 0 -5 9 -9 19 -8 11
0 17 5 15 9 -3 4 0 8 5 8 6 0 11 4 11 10 0 5 -8 7 -17 3 -17 -6 -17 -5 -1 13
16 19 16 20 -5 22 -12 1 -29 -3 -37 -9z"/>
<path d="M1900 1370 c0 -5 5 -10 11 -10 5 0 7 5 4 10 -3 6 -8 10 -11 10 -2 0
-4 -4 -4 -10z"/>
<path d="M1796 1354 c-3 -9 6 -12 31 -11 24 1 37 -3 40 -13 4 -13 3 -13 -6 0
-10 13 -13 13 -22 -3 -6 -9 -15 -14 -21 -11 -7 5 -8 2 -3 -5 5 -9 11 -9 17 -3
6 6 16 8 23 6 7 -3 16 -1 19 5 4 6 14 8 24 5 15 -5 15 -4 2 6 -13 9 -12 11 5
7 11 -2 19 -8 18 -13 -1 -6 4 -11 12 -11 8 0 11 5 8 10 -4 6 0 8 9 5 8 -4 15
-1 15 7 0 9 -14 12 -46 10 -25 -1 -50 1 -56 5 -20 14 -64 17 -69 4z"/>
<path d="M1877 1297 c-3 -8 1 -14 8 -14 7 0 11 6 8 14 -3 7 -6 13 -8 13 -2 0
-5 -6 -8 -13z"/>
<path d="M1956 1302 c-3 -5 11 -9 31 -10 40 -2 41 2 1 12 -15 3 -29 2 -32 -2z"/>
<path d="M1840 1285 c-11 -13 -10 -14 4 -9 9 3 16 10 16 15 0 13 -6 11 -20 -6z"/>
<path d="M2027 1270 c-8 -11 -17 -18 -20 -15 -4 3 -5 2 -2 -1 2 -4 0 -15 -6
-25 -5 -11 -6 -19 -1 -19 6 0 12 9 15 21 3 12 10 18 16 14 6 -3 11 -1 11 5 0
6 5 8 13 4 9 -6 9 -5 0 8 -7 8 -10 18 -6 21 3 4 4 7 0 7 -3 0 -12 -9 -20 -20z"/>
<path d="M1957 1237 c-3 -8 1 -14 9 -14 8 0 14 6 14 14 0 7 -4 13 -9 13 -5 0
-11 -6 -14 -13z"/>
<path d="M1870 1219 c0 -11 4 -18 10 -14 5 3 7 12 3 20 -7 21 -13 19 -13 -6z"/>
<path d="M2063 1233 c-7 -3 -13 -12 -13 -21 0 -11 3 -13 8 -6 4 6 14 13 22 16
7 2 10 7 5 10 -6 3 -16 3 -22 1z"/>
<path d="M2105 1230 c3 -5 8 -10 11 -10 2 0 4 5 4 10 0 6 -5 10 -11 10 -5 0
-7 -4 -4 -10z"/>
<path d="M1922 1180 c-8 -13 -8 -20 -2 -20 6 0 13 7 17 15 9 24 -1 27 -15 5z"/>
<path d="M2125 1190 c3 -5 8 -10 11 -10 2 0 4 5 4 10 0 6 -5 10 -11 10 -5 0
-7 -4 -4 -10z"/>
<path d="M2162 1185 c-11 -13 -9 -15 12 -13 19 2 22 5 14 15 -12 15 -10 16
-26 -2z"/>
<path d="M2000 1180 c0 -5 0 -13 1 -17 0 -4 -9 -10 -20 -15 -28 -10 -26 -19
11 -54 17 -16 28 -23 24 -16 -4 6 -2 12 3 12 15 0 14 19 -3 36 -8 8 -13 25
-10 39 2 14 2 25 -1 25 -3 0 -5 -4 -5 -10z m-6 -55 c-4 -10 0 -15 11 -15 9 0
13 -5 10 -11 -5 -7 -13 -4 -26 7 -18 16 -17 34 1 34 5 0 7 -7 4 -15z"/>
<path d="M2040 1175 c-7 -8 -9 -15 -4 -15 5 0 2 -5 -6 -10 -8 -5 -10 -10 -4
-10 16 0 47 37 36 44 -5 3 -15 -1 -22 -9z"/>
<path d="M2058 1142 c-10 -12 -10 -14 0 -8 16 10 34 -2 25 -17 -11 -18 -12
-37 -2 -37 6 0 9 6 7 14 -2 8 2 16 7 18 6 2 11 -9 13 -24 2 -16 8 -28 13 -28
6 0 8 4 5 9 -3 5 1 11 9 15 17 6 21 -19 5 -29 -6 -4 -8 -11 -5 -16 4 -5 1 -9
-4 -9 -6 0 -11 5 -11 12 0 16 -13 1 -16 -18 -2 -11 3 -13 14 -9 9 4 23 8 30 8
15 0 16 17 0 17 -7 0 3 15 21 34 25 26 32 39 26 53 -5 10 -7 22 -6 27 1 5 -5
4 -13 -4 -17 -13 -22 -25 -7 -16 5 3 11 -2 13 -12 6 -20 -18 -47 -27 -32 -3 6
-3 10 2 10 4 0 -3 7 -15 16 -13 9 -21 21 -19 28 7 18 -51 16 -65 -2z m52 -9
c0 -7 7 -16 15 -19 8 -4 15 -10 15 -15 0 -16 -15 -8 -37 20 -16 21 -18 28 -7
28 8 0 14 -6 14 -14z"/>
<path d="M2140 1145 c0 -8 2 -15 4 -15 2 0 6 7 10 15 3 8 1 15 -4 15 -6 0 -10
-7 -10 -15z"/>
<path d="M2220 1160 c-7 -31 -5 -42 11 -66 20 -31 26 -26 9 7 -7 11 -7 19 -1
19 5 0 12 -6 14 -12 4 -9 6 -9 6 -2 1 12 -37 64 -39 54z m15 -19 c3 -5 2 -12
-3 -15 -5 -3 -9 1 -9 9 0 17 3 19 12 6z"/>
<path d="M2277 1101 c3 -12 9 -21 14 -21 14 0 11 16 -5 29 -12 10 -13 8 -9 -8z"/>
<path d="M2197 1083 c-2 -5 -3 -16 -1 -26 2 -13 -2 -17 -12 -13 -8 3 -14 2
-14 -2 0 -9 52 -33 58 -27 3 3 -1 5 -9 5 -10 1 -8 5 6 16 l20 16 -20 -4 c-15
-2 -20 2 -19 20 1 23 -2 28 -9 15z"/>
<path d="M2268 1067 c7 -8 9 -17 5 -21 -4 -3 -7 -15 -8 -26 -1 -15 2 -17 11
-9 8 7 14 6 17 -3 4 -8 6 -7 6 5 1 9 -6 17 -15 17 -8 0 -12 5 -9 10 4 6 11 8
16 5 5 -3 6 1 3 9 -3 8 -13 17 -21 20 -12 5 -13 4 -5 -7z"/>
<path d="M2046 1058 c3 -4 11 -5 19 -1 8 3 15 0 15 -7 0 -6 5 -8 10 -5 20 12
9 25 -19 23 -16 -1 -28 -6 -25 -10z"/>
<path d="M2320 1066 c0 -2 7 -7 16 -10 8 -3 12 -2 9 4 -6 10 -25 14 -25 6z"/>
<path d="M2365 1040 c-3 -5 -1 -10 4 -10 6 0 11 5 11 10 0 6 -2 10 -4 10 -3 0
-8 -4 -11 -10z"/>
<path d="M2510 1030 c-6 -11 -8 -20 -6 -20 3 0 10 9 16 20 6 11 8 20 6 20 -3
0 -10 -9 -16 -20z"/>
<path d="M2446 1027 c3 -8 12 -14 19 -13 18 3 32 16 17 16 -5 0 -18 3 -26 6
-12 4 -15 2 -10 -9z"/>
<path d="M2565 1020 c3 -5 1 -10 -4 -10 -6 0 -11 -5 -11 -11 0 -5 5 -7 10 -4
6 3 10 -1 10 -9 0 -9 7 -16 15 -16 14 0 14 3 0 30 -9 17 -18 30 -21 30 -3 0
-2 -4 1 -10z"/>
<path d="M2626 1014 c-5 -14 -4 -15 9 -4 17 14 19 20 6 20 -5 0 -12 -7 -15
-16z"/>
<path d="M2158 1002 c-45 -28 -36 -54 35 -105 34 -25 82 -61 107 -81 86 -70
120 -92 120 -75 0 5 4 8 9 4 5 -3 13 0 17 6 4 7 3 9 -4 5 -12 -7 -52 39 -52
60 0 8 -7 14 -16 14 -14 0 -15 -2 -3 -17 13 -15 12 -15 -9 -2 -12 8 -18 15
-12 17 5 2 10 11 10 20 0 11 -3 13 -11 5 -12 -12 -52 -5 -44 7 3 5 -9 13 -26
19 -20 7 -28 15 -23 22 5 8 2 10 -9 6 -21 -8 -44 20 -29 35 7 7 12 16 12 21 0
5 -8 0 -17 -12 l-18 -21 -28 24 c-25 21 -26 24 -10 31 10 5 21 8 24 7 3 0 6 6
6 14 0 8 -1 14 -1 13 -1 0 -13 -8 -28 -17z"/>
<path d="M2426 996 c3 -9 13 -16 22 -16 8 0 13 1 11 3 -2 1 -12 9 -22 16 -15
12 -17 12 -11 -3z"/>
<path d="M2517 996 c-6 -14 21 -32 31 -21 3 3 0 5 -7 5 -7 0 -10 4 -6 9 3 5 1
12 -4 15 -5 3 -11 0 -14 -8z"/>
<path d="M2335 990 c3 -5 13 -10 21 -10 8 0 12 5 9 10 -3 6 -13 10 -21 10 -8
0 -12 -4 -9 -10z"/>
<path d="M2249 981 c7 -5 11 -13 7 -19 -11 -18 5 -42 28 -42 21 -1 21 -1 2
-15 -11 -8 -15 -15 -9 -15 28 0 40 43 12 46 -5 1 -13 2 -19 3 -5 0 -10 6 -10
12 0 6 7 8 16 5 13 -5 14 -4 6 7 -7 8 -10 16 -7 18 2 3 -6 6 -18 6 -16 2 -18
0 -8 -6z"/>
<path d="M2479 974 c6 -3 7 -12 4 -20 -3 -7 2 -17 11 -20 9 -3 16 -10 16 -16
0 -5 -4 -7 -9 -4 -5 3 -17 -6 -26 -20 -9 -15 -12 -24 -7 -20 6 3 12 3 15 -1 2
-5 2 -2 1 5 -2 6 0 12 5 12 14 0 61 45 61 58 0 7 -5 10 -10 7 -6 -4 -7 -11 -4
-17 5 -8 1 -9 -10 -5 -10 4 -21 7 -26 7 -4 0 -7 7 -6 16 0 9 -5 18 -12 20 -7
1 -8 0 -3 -2z"/>
<path d="M2427 953 c3 -7 9 -10 14 -7 14 8 11 21 -5 21 -8 0 -12 -6 -9 -14z"/>
<path d="M2335 949 c-18 -9 -18 -9 3 -5 23 4 31 -9 10 -17 -10 -4 -10 -6 -1
-6 16 -1 27 19 17 29 -5 4 -18 4 -29 -1z"/>
<path d="M2580 951 c0 -7 -5 -9 -12 -5 -7 5 -8 3 -3 -5 5 -9 10 -10 18 -2 6 6
8 14 4 18 -4 3 -7 1 -7 -6z"/>
<path d="M2230 919 c0 -5 5 -7 10 -4 6 3 10 8 10 11 0 2 -4 4 -10 4 -5 0 -10
-5 -10 -11z"/>
<path d="M2400 915 c-7 -8 -11 -15 -9 -16 37 -7 40 -7 29 6 -8 10 -7 14 2 18
8 3 8 6 2 6 -6 1 -17 -6 -24 -14z"/>
<path d="M2321 913 c-1 -7 8 -17 19 -23 14 -7 20 -7 20 0 0 5 -6 10 -14 10 -8
0 -17 6 -19 13 -4 9 -6 9 -6 0z"/>
<path d="M2533 885 c0 -8 4 -12 9 -9 5 3 6 10 3 15 -9 13 -12 11 -12 -6z"/>
<path d="M2415 869 c-11 -4 -14 -8 -7 -8 8 -1 10 -6 6 -13 -4 -7 1 -5 11 4 22
21 18 29 -10 17z"/>
<path d="M2454 846 c-3 -8 -1 -22 4 -31 8 -16 9 -16 15 -1 4 11 3 15 -4 10 -8
-4 -9 1 -4 15 7 23 -2 29 -11 7z"/>
<path d="M2496 833 c-6 -14 -5 -15 5 -6 7 7 10 15 7 18 -3 3 -9 -2 -12 -12z"/>
</g>
</svg>
